<svg version="1.2" xmlns="http://www.w3.org/2000/svg" viewBox="0 0 1088 571" width="1088" height="571">
	<title>logo</title>
	<defs>
		<clipPath clipPathUnits="userSpaceOnUse" id="cp1">
			<path d="m0 0h1088v571h-1088z"/>
		</clipPath>
	</defs>
	<style>
		.s0 { fill: #f2f2f2 } 
		.s1 { fill: #c3ef0c } 
		.s2 { fill: #808080 } 
	</style>
	<g id="Artboard 1" clip-path="url(#cp1)">
		<g id="Folder 1">
			<path id="&lt;Compound Path&gt;" class="s0" d="m855.3 348.1q-15.9 0-24.2-7.4-8.2-7.3-8.2-21.2v-48.4h-19.9v-21.2h19.9v-22.4h25.2v22.4h27.8v21.2h-27.8v43q0 6.7 3.1 9.6 3 2.8 10.2 2.8 3.9 0 7-0.4 3.1-0.5 6.8-1.6v20.8q-3.9 1.3-9.7 2-5.7 0.8-10.2 0.8z"/>
			<path id="&lt;Compound Path&gt;" class="s0" d="m532.3 346.6v-96.7h25.6v10.8q4.4-6.3 11-9.7 6.6-3.3 14.8-3.3 7.2 0.2 10.6 2v22.5q-3-1.3-6.3-2.1-3.2-0.7-6.7-0.7-7.5 0-13.6 3.8-6.1 3.8-9.8 10.7v62.7z"/>
			<path id="&lt;Compound Path&gt;" fill-rule="evenodd" class="s0" d="m636.2 348.2q-10.2 0-18.2-3.8-8-3.8-12.4-10.4-4.5-6.7-4.5-15.4 0-14 10.4-21.7 10.4-7.7 29-7.7 12.6 0 23.7 3.9v-7q0-8.4-5.2-12.6-5.2-4.3-15.2-4.3-5.9 0-13.2 1.9-7.2 2-16.3 6.1l-9.1-18.9q11.5-5.1 21.9-7.7 10.4-2.6 20.8-2.6 19.8 0 30.6 9.4 10.8 9.4 10.8 26.5v62.7h-25.1v-6.9q-5.9 4.5-12.8 6.5-6.9 2-15.2 2zm-11-30.2q0 5.6 4.9 8.8 4.8 3.3 12.8 3.3 6.3 0 11.6-1.5 5.3-1.5 9.7-4.9v-14.1q-4.6-2-9.6-2.8-5-0.9-10.8-0.9-8.7 0-13.6 3.2-5 3.1-5 8.9z"/>
			<path id="&lt;Path&gt;" class="s1" d="m773.4 309.3l-12.2 15.1c-1.7 2.1-1.7 5-0.1 7.2l11.1 15h29.5z"/>
			<path id="&lt;Path&gt;" class="s0" d="m727.6 346.6l72-96.7h-28.5l-21.2 28.8-21.3-28.8h-29.5l36.2 47.5-37.1 49.2z"/>
			<path id="&lt;Compound Path&gt;" class="s0" d="m490.3 348.1q-15.9 0-24.2-7.4-8.2-7.3-8.2-21.2v-48.4h-19.9v-21.2h19.9v-24.7l25.2-5.7v30.4h27.8v21.2h-27.8v43q0 6.7 3.1 9.6 3 2.8 10.2 2.8 3.9 0 7-0.4 3.1-0.5 6.8-1.6v20.8q-3.9 1.3-9.7 2-5.7 0.8-10.2 0.8z"/>
			<path id="&lt;Compound Path&gt;" fill-rule="evenodd" class="s0" d="m361.4 268.3c0 9.9 0 19.9 0 29.6v1.5q-8.1-1.3-16.3-0.4v-14.3c0-0.5-0.1-1-0.1-1.5l-0.2-4.4-3.2 1.3q-0.3 0.1-0.6 0.2c-0.3 0.1-0.6 0.2-0.9 0.4l-14.4 7.6c-15.3 8.1-31.1 16.5-46.6 24.7-3 1.6-3 4.1-3 5.5q0 22 0 44.1v23.6c0 0.5 0.1 1.1 0.1 1.6q0.1 0.4 0.1 0.9l0.3 3.7 4.2-2.1c0.5-0.3 1-0.5 1.5-0.8l14.4-8.2c2.1 5 4.9 9.7 8.3 14q-13.5 7.7-26.9 15.5c-6.9 3.9-13.2 3.9-20 0-22.2-12.7-46.1-26.4-73.2-41.8-7.1-4-10.3-9.7-10.3-17.9 0.1-29.5 0.1-56.6 0-82.7 0-8.2 3.3-14 10.4-18 21.2-12 43.7-24.9 73.2-41.8 3.3-1.9 6.6-2.9 9.8-2.9 3.3 0 6.5 1 9.9 2.9 26 14.9 49.9 28.6 73.3 41.8 7 4.1 10.3 9.7 10.2 17.9zm-101.4 50.5c0-2.9-1.2-4.8-3.7-6.1-10.6-5.5-21.3-11.1-31.6-16.5l-33.7-17.7v20.7c0 16.5 0 33.6-0.1 50.3 0 2.9 1.1 4.8 3.7 6.3q21.2 12 42.3 24.1l17.3 9.8c0.5 0.3 1 0.5 1.5 0.7q0.3 0.2 0.7 0.3l3.5 1.5v-20.6c0-17.3 0-35.2 0.1-52.8zm78.8-56l-3.3-2.3q-0.3-0.2-0.5-0.3c-0.3-0.3-0.7-0.5-1.1-0.8l-5.7-3.2c-18.8-10.8-38.3-21.9-57.5-32.8-1.7-1-4.1-0.7-5.6 0.1-8 4.5-16.1 9.1-23.9 13.6l-44.9 25.6 5.3 3c0.9 0.4 1.6 0.8 2.3 1.2l14.3 7.5c15.2 8 31 16.2 46.4 24.4 1.2 0.6 2.2 0.9 3.3 0.9 1.2 0 2.3-0.3 3.6-1 11.5-6.2 23.3-12.4 34.7-18.5l12.8-6.8q5.5-2.9 11.1-5.9z"/>
			<path id="&lt;Path&gt;" class="s1" d="m353.3 341.6c4.4-4.5 8.2-8.2 12-12 2-2.1 4.2-3.4 7.1-2.1 2.8 1.2 3.5 3.7 3.5 6.6-0.1 5 0 10 0 15.4 4.7 0 9.1 0 13.6 0 1.3 0 2.5 0 3.7 0.1 3 0.3 5.1 2.6 5 5.6 0 2.9-2 5.4-5.1 5.4q-11.7 0.2-23.4 0c-3.1 0-4.9-2.3-5.1-5.8-0.1-1.3-0.1-2.6-0.1-4 0-1.2 0-2.4 0-4.5-2.4 2.5-4.4 4.4-6.3 6.3-2.2 2.2-4.3 4.8-6.8 6.5-1.6 1.1-4.3 1.6-5.9 0.9-1.5-0.7-2.9-3-3.3-4.9-0.5-2.5-0.1-5.3-0.1-8.5-0.9 0.8-1.6 1.2-2.1 1.7-3.6 3.5-7.1 7.1-10.7 10.6-2.6 2.5-6 2.4-8.2 0.1-2.2-2.4-2.2-5.5 0.3-8 7.4-7.5 14.8-14.9 22.2-22.3 1.8-1.7 3.9-2.3 6.2-1.2 2.3 0.9 3.5 2.8 3.5 5.3 0 2.6 0 5.2 0 8.8z"/>
			<path id="&lt;Path&gt;" class="s1" d="m325.9 384.6h-8.3v-8.3h8.3z"/>
			<path id="&lt;Path&gt;" class="s1" d="m341.5 384.6h-8.3v-8.3h8.3z"/>
			<path id="&lt;Path&gt;" class="s1" d="m357.1 384.6h-8.3v-8.3h8.3z"/>
			<path id="&lt;Path&gt;" class="s1" d="m372.6 384.6h-8.3v-8.3h8.3z"/>
			<path id="&lt;Path&gt;" class="s1" d="m388.2 384.6h-8.3v-8.3h8.3z"/>
			<path id="&lt;Compound Path&gt;" class="s2" d="m679.5 409q-4 0-7.6-1.6-3.7-1.6-6.5-4.7l2.5-2.5q2.6 2.8 5.5 4.2 3 1.4 6.2 1.4 2.7 0 4.7-0.9 2-0.8 3.2-2.3 1.2-1.6 1.2-3.5 0-2.6-1.8-4-1.8-1.3-6-2l-4.8-0.8q-4.9-0.8-7.2-2.9-2.3-2-2.3-5.6 0-2.8 1.5-4.9 1.5-2.1 4.2-3.3 2.6-1.1 6.1-1.1 3.6 0 7 1.1 3.4 1.2 6.3 3.3l-2.1 2.9q-5.6-4.2-11.3-4.2-2.4 0-4.2 0.8-1.9 0.7-2.9 2-1 1.4-1 3.1 0 2.4 1.6 3.6 1.6 1.3 5.2 1.9l4.8 0.7q5.6 0.9 8.1 3.1 2.4 2.2 2.4 6.1 0 3-1.6 5.2-1.6 2.3-4.5 3.6-2.9 1.3-6.7 1.3z"/>
			<path id="&lt;Compound Path&gt;" class="s2" d="m698.5 379.8q-1 0-1.7-0.7-0.7-0.7-0.7-1.7 0-1 0.7-1.7 0.7-0.7 1.7-0.7 1 0 1.7 0.7 0.7 0.7 0.7 1.7 0 1-0.7 1.7-0.7 0.7-1.7 0.7zm-1.8 28.7v-24.1h3.6v24.1z"/>
			<path id="&lt;Compound Path&gt;" fill-rule="evenodd" class="s2" d="m718 418.8q-2.5 0-4.9-0.7-2.5-0.6-4.5-1.8l1.6-2.8q2.1 1.1 4 1.7 1.8 0.5 3.7 0.5 3.4 0 5.2-1.6 1.7-1.7 1.7-4.8v-3.4q-3.3 2.8-7.6 2.8-3.3 0-6-1.7-2.8-1.6-4.4-4.4-1.6-2.8-1.6-6.3 0-3.4 1.6-6.2 1.6-2.8 4.4-4.5 2.7-1.6 6.1-1.6 2.1 0 4 0.7 2 0.7 3.6 2.1v-2.4h3.5v24.8q0 4.6-2.7 7.1-2.7 2.5-7.7 2.5zm-0.5-13.2q2.3 0 4.2-0.9 1.9-0.9 3.1-2.5v-11.8q-1.2-1.5-3.1-2.4-1.9-0.8-4.2-0.8-2.5 0-4.5 1.2-2 1.2-3.1 3.3-1.2 2.1-1.2 4.6 0 2.6 1.2 4.7 1.2 2.1 3.2 3.3 2 1.3 4.4 1.3z"/>
			<path id="&lt;Compound Path&gt;" class="s2" d="m734.4 408.5v-24.1h3.6v2.9q2.8-3.3 7.6-3.3 2.7 0 4.8 1.1 2.1 1.2 3.3 3.3 1.1 2.1 1.1 4.9v15.2h-3.5v-14.5q0-3.2-1.8-5.1-1.8-1.8-4.9-1.8-2.1 0-3.8 0.9-1.7 1-2.8 2.8v17.7z"/>
			<path id="&lt;Compound Path&gt;" class="s2" d="m781.1 408.5v-30.3h-12.2v-3.3h28v3.3h-12.2v30.3z"/>
			<path id="&lt;Compound Path&gt;" class="s2" d="m798.3 408.5v-24.1h3.6v3.4q1.1-1.8 2.8-2.9 1.7-1 3.9-1 1.3 0 2.3 0.3v3.3q-0.7-0.2-1.3-0.3-0.6-0.1-1.2-0.1-2.2 0-3.9 1.3-1.7 1.2-2.6 3.6v16.5z"/>
			<path id="&lt;Compound Path&gt;" class="s2" d="m823.7 409q-2.8 0-4.9-1.2-2.1-1.2-3.3-3.3-1.1-2.1-1.1-4.8v-15.3h3.5v14.5q0 3.3 1.8 5.1 1.8 1.8 4.9 1.8 2.1 0 3.9-0.9 1.7-1 2.7-2.8v-17.7h3.6v24.1h-3.6v-2.8q-2.8 3.3-7.5 3.3z"/>
			<path id="&lt;Compound Path&gt;" class="s2" d="m848.5 409q-3 0-5.6-1-2.6-1-4.5-2.8l2.1-2.3q1.7 1.6 3.7 2.4 2 0.8 4.1 0.8 2.9 0 4.8-1.2 1.8-1.2 1.8-3.1 0-1.6-1.1-2.5-1.1-0.8-3.4-1.2l-4.2-0.6q-3.6-0.5-5.3-2.1-1.8-1.6-1.8-4.4 0-2 1.2-3.6 1.1-1.6 3.2-2.5 2-0.9 4.7-0.9 2.6 0 4.9 0.7 2.3 0.8 4.5 2.4l-1.9 2.4q-2-1.4-3.9-2-1.9-0.7-3.8-0.7-2.5 0-4.1 1.1-1.5 1.1-1.5 2.9 0 1.7 1.1 2.5 1 0.8 3.4 1.2l4.1 0.5q3.6 0.5 5.4 2.2 1.8 1.6 1.8 4.4 0 2.1-1.3 3.8-1.3 1.6-3.4 2.6-2.2 1-5 1z"/>
			<path id="&lt;Compound Path&gt;" class="s2" d="m871.2 409q-3.1 0-4.8-1.5-1.7-1.5-1.7-4.3v-15.7h-5.2v-3.1h5.2v-6.1l3.5-0.9v7h7.3v3.1h-7.3v14.7q0 2 0.9 2.8 0.8 0.8 2.8 0.8 1 0 1.8-0.1 0.8-0.1 1.7-0.5v3.1q-0.9 0.4-2 0.5-1.1 0.2-2.2 0.2z"/>
		</g>
	</g>
</svg>