<svg width="425" height="425" viewBox="0 0 425 425" fill="none" xmlns="http://www.w3.org/2000/svg">
<path d="M0 88.0757C0 39.4328 39.4328 0 88.0757 0H336.924C385.567 0 425 39.4328 425 88.0757V336.924C425 385.567 385.567 425 336.924 425H88.0757C39.4328 425 0 385.567 0 336.924V88.0757Z" fill="#001966"/>
<path d="M135.848 175.223C133.47 185.84 118.729 227.694 104.304 227.694C97.3315 227.694 94.0035 217.71 95.9026 202.489C98.5976 181.409 112.389 144.158 127.447 144.158C136.644 144.158 136.165 157.154 134.899 164.769C137.277 165.881 140.289 166.351 143.617 166.351C153.284 166.351 164.86 161.594 163.91 150.498C162.644 137.819 152.181 131 133.795 131C82.7533 131 67.0627 178.877 64.0511 203.439C60.0901 234.829 73.8815 249.887 91.001 249.887C104.476 249.887 115.093 240.219 122.545 229.756C118.584 248.458 112.398 275.724 98.7694 277.307C87.8357 278.419 85.9276 263.516 87.0399 255.277C76.5765 253.378 64.3677 259.717 63.1016 269.539C61.6727 281.901 75.4641 293.314 95.2786 293.314C112.561 293.314 134.908 284.28 145.841 254.002C152.181 236.719 159.47 202.164 166.135 175.223H135.848Z" fill="#A9DBFF"/>
<path d="M244.742 169.834C255.522 169.834 264.556 162.382 267.414 151.765C270.425 140.985 265.035 133.696 254.256 133.696C243.159 133.696 234.125 140.831 231.43 151.765C228.581 162.699 233.971 169.834 244.742 169.834Z" fill="#A9DBFF"/>
<path d="M355.553 210.892C353.491 216.282 343.507 230.707 337.004 230.707C326.704 230.707 327.653 206.298 327.653 195.835C330.186 194.406 334.156 192.66 337.321 192.66C339.853 192.66 341.761 193.773 342.078 196.938C348.101 195.509 351.275 191.548 351.908 186.637C352.858 179.819 349.059 173.958 340.179 173.958C327.337 173.805 311.8 186.954 300.387 199.317L317.19 133.217H287.229L267.107 212.167C264.267 217.467 255.178 230.065 249.661 230.065C246.171 230.065 246.017 225.787 246.487 222.459C247.437 214.374 254.256 190.282 258.217 175.224H227.939C225.253 185.968 221.382 200.727 218.325 212.918C215.034 218.57 206.234 230.074 200.835 230.074C197.344 230.074 197.191 225.796 197.661 222.468C198.61 214.383 216.526 148.284 220.487 133.226H190.209C185.298 152.878 165.484 228.021 164.688 234.198C162.943 247.826 170.078 256.87 181.328 256.707C192.334 256.617 204.272 247.356 213.306 236.35C212.547 248.767 219.474 256.852 229.675 256.707C240.084 256.617 251.624 248.034 260.613 237.589L256.309 254.491H286.27L294.988 220.885L301.96 214.546C301.798 231.032 303.227 256.87 322.091 256.707C339.844 256.553 357.759 229.92 362.987 213.271L355.553 210.892Z" fill="#A9DBFF"/>
</svg>
