<?xml version="1.0" encoding="UTF-8"?>
<svg id="Layer_1" data-name="Layer 1" xmlns="http://www.w3.org/2000/svg" viewBox="0 0 1080 1080">
  <defs>
    <style>
      .cls-1 {
        fill: #a9dbff;
      }

      .cls-1, .cls-2 {
        stroke-width: 0px;
      }

      .cls-2 {
        fill: #0048e3;
      }
    </style>
  </defs>
  <rect class="cls-1" x="-14" y="-7.8" width="1113.68" height="1096.48"/>
  <g>
    <path class="cls-2" d="M370.92,459.53c-5.18,23.14-37.3,114.32-68.73,114.32-15.2,0-22.45-21.76-18.3-54.91,5.87-45.94,35.92-127.1,68.73-127.1,20.03,0,19,28.32,16.23,44.9,5.18,2.42,11.74,3.45,19,3.45,21.07,0,46.28-10.36,44.21-34.54-2.76-27.63-25.56-42.48-65.62-42.48-111.21,0-145.4,104.3-151.97,157.84-8.63,68.38,21.41,101.2,58.71,101.2,29.36,0,52.5-21.07,68.73-43.86-8.63,40.75-22.1,100.16-51.81,103.61-23.83,2.42-27.98-30.05-25.56-48.01-22.79-4.15-49.39,9.67-52.15,31.08-3.11,26.94,26.94,51.81,70.11,51.81,37.65,0,86.34-19.69,110.17-85.65,13.82-37.65,29.7-112.94,44.21-171.65h-65.97Z"/>
    <path class="cls-2" d="M608.18,447.78c23.49,0,43.17-16.23,49.39-39.37,6.56-23.49-5.18-39.37-28.67-39.37s-43.86,15.54-49.73,39.37c-6.22,23.83,5.53,39.37,29.01,39.37Z"/>
    <path class="cls-2" d="M849.6,537.24c-4.49,11.74-26.25,43.17-40.41,43.17-22.45,0-20.38-53.19-20.38-75.98,5.53-3.11,14.16-6.91,21.07-6.91,5.53,0,9.67,2.42,10.36,9.32,13.13-3.11,20.03-11.74,21.41-22.45,2.07-14.85-6.22-27.63-25.56-27.63-27.98-.34-61.82,28.32-86.69,55.26l36.61-144.02h-65.28l-43.85,172.02c-6.2,11.55-26,39-38.01,39-7.6,0-7.94-9.32-6.91-16.58,2.07-17.61,16.92-70.11,25.56-102.92h-65.97c-5.85,23.4-14.28,55.56-20.94,82.12-7.18,12.31-26.34,37.38-38.11,37.38-7.6,0-7.94-9.32-6.91-16.58,2.07-17.61,41.1-161.64,49.73-194.45h-65.97c-10.71,42.83-53.88,206.53-55.61,220-3.8,29.7,11.74,49.39,36.26,49.04,23.98-.2,50-20.38,69.67-44.35-1.66,27.06,13.44,44.67,35.66,44.35,22.69-.2,47.81-18.89,67.41-41.65l-9.39,36.82h65.28l19-73.22,15.2-13.81c-.35,35.92,2.76,92.22,43.86,91.87,38.68-.34,77.71-58.37,89.11-94.63l-16.23-5.18Z"/>
  </g>
</svg>