<svg width="74" height="92" viewBox="0 0 74 92" fill="none" xmlns="http://www.w3.org/2000/svg">
<path d="M18.864 90V21.392L0.304 28.816V10.896L26.544 0.399994H39.6V90H18.864ZM61.75 91.408C58.5073 91.408 55.6913 90.256 53.302 87.952C50.998 85.5627 49.846 82.7467 49.846 79.504C49.846 76.2613 50.998 73.488 53.302 71.184C55.6913 68.7947 58.5073 67.6 61.75 67.6C64.9927 67.6 67.766 68.7947 70.07 71.184C72.4593 73.488 73.654 76.2613 73.654 79.504C73.654 82.7467 72.4593 85.5627 70.07 87.952C67.766 90.256 64.9927 91.408 61.75 91.408Z" fill="#009DFF"/>
</svg>
