<svg width="100" height="94" viewBox="0 0 100 94" fill="none" xmlns="http://www.w3.org/2000/svg">
<path d="M3.272 92V77.92L41.16 40.416C42.6107 39.0507 43.7627 37.728 44.616 36.448C45.4693 35.0827 46.1093 33.7173 46.536 32.352C46.9627 30.9867 47.176 29.6213 47.176 28.256C47.176 25.3547 45.896 22.9653 43.336 21.088C40.8613 19.1253 37.7467 18.144 33.992 18.144C29.9813 18.144 26.2267 18.9973 22.728 20.704C19.2293 22.3253 15.432 25.1413 11.336 29.152L0.328 15.712C5.448 10.848 10.8667 7.17866 16.584 4.70399C22.3867 2.22933 28.4027 0.991997 34.632 0.991997C41.032 0.991997 46.5787 2.10133 51.272 4.31999C56.0507 6.45333 59.7627 9.48266 62.408 13.408C65.0533 17.248 66.376 21.7707 66.376 26.976C66.376 29.792 65.9493 32.5227 65.096 35.168C64.328 37.728 63.0907 40.2453 61.384 42.72C59.6773 45.1947 57.4587 47.7547 54.728 50.4L28.872 75.36L67.656 75.232V92H3.272ZM88 93.408C84.7573 93.408 81.9413 92.256 79.552 89.952C77.248 87.5627 76.096 84.7467 76.096 81.504C76.096 78.2613 77.248 75.488 79.552 73.184C81.9413 70.7947 84.7573 69.6 88 69.6C91.2427 69.6 94.016 70.7947 96.32 73.184C98.7093 75.488 99.904 78.2613 99.904 81.504C99.904 84.7467 98.7093 87.5627 96.32 89.952C94.016 92.256 91.2427 93.408 88 93.408Z" fill="#009DFF"/>
</svg>
