<svg width="105" height="94" viewBox="0 0 105 94" fill="none" xmlns="http://www.w3.org/2000/svg">
<path d="M36.04 93.408C28.872 93.408 22.1733 92.128 15.944 89.568C9.8 87.008 4.72267 83.4667 0.712 78.944L14.024 66.656C17.352 70.24 20.552 72.7147 23.624 74.08C26.7813 75.4453 30.8347 76.128 35.784 76.128C39.0267 76.128 41.8427 75.7013 44.232 74.848C46.7067 73.9093 48.584 72.6293 49.864 71.008C51.2293 69.3013 51.912 67.3387 51.912 65.12C51.912 63.1573 51.4 61.4933 50.376 60.128C49.4373 58.7627 48.072 57.696 46.28 56.928C44.5733 56.16 42.5253 55.776 40.136 55.776H28.616V39.52H38.088C41.7573 39.52 44.616 38.6667 46.664 36.96C48.712 35.168 49.736 32.6933 49.736 29.536C49.736 27.4027 49.096 25.5253 47.816 23.904C46.6213 22.1973 44.9573 20.8747 42.824 19.936C40.776 18.9973 38.3867 18.528 35.656 18.528C31.304 18.528 27.592 19.296 24.52 20.832C21.5333 22.2827 18.2907 24.928 14.792 28.768L1.352 16.608C5.61867 11.744 10.824 7.94666 16.968 5.216C23.1973 2.4 29.6827 0.991997 36.424 0.991997C42.9947 0.991997 48.7547 2.10133 53.704 4.31999C58.6533 6.45333 62.536 9.48266 65.352 13.408C68.168 17.248 69.576 21.728 69.576 26.848C69.576 31.712 67.9973 35.9787 64.84 39.648C61.6827 43.3173 57.5867 45.8773 52.552 47.328C58.44 48.4373 63.1333 50.7413 66.632 54.24C70.1307 57.6533 71.88 61.8347 71.88 66.784C71.88 71.904 70.344 76.4693 67.272 80.48C64.2 84.4907 59.976 87.648 54.6 89.952C49.224 92.256 43.0373 93.408 36.04 93.408ZM92.25 93.408C89.0073 93.408 86.1913 92.256 83.802 89.952C81.498 87.5627 80.346 84.7467 80.346 81.504C80.346 78.2613 81.498 75.488 83.802 73.184C86.1913 70.7947 89.0073 69.6 92.25 69.6C95.4927 69.6 98.266 70.7947 100.57 73.184C102.959 75.488 104.154 78.2613 104.154 81.504C104.154 84.7467 102.959 87.5627 100.57 89.952C98.266 92.256 95.4927 93.408 92.25 93.408Z" fill="#009DFF"/>
</svg>
