<svg width="89" height="89" viewBox="0 0 89 89" fill="none" xmlns="http://www.w3.org/2000/svg">
<mask id="mask0_227_469" style="mask-type:alpha" maskUnits="userSpaceOnUse" x="0" y="0" width="89" height="89">
<rect width="88.3633" height="88.3633" fill="#009DFF"/>
</mask>
<g mask="url(#mask0_227_469)">
<path d="M9.36361 74.9089C7.33861 74.9089 5.6051 74.1878 4.16306 72.7458C2.72102 71.3038 2 69.5702 2 67.5452C2 65.5203 2.72102 63.7867 4.16306 62.3447C5.6051 60.9027 7.33861 60.1816 9.36361 60.1816C11.3886 60.1816 13.1221 60.9027 14.5642 62.3447C16.0062 63.7867 16.7272 65.5203 16.7272 67.5452C16.7272 69.5702 16.0062 71.3038 14.5642 72.7458C13.1221 74.1878 11.3886 74.9089 9.36361 74.9089ZM31.4544 74.9089C29.4294 74.9089 27.6959 74.1878 26.2539 72.7458C24.8118 71.3038 24.0908 69.5702 24.0908 67.5452C24.0908 65.5203 24.8118 63.7867 26.2539 62.3447C27.6959 60.9027 29.4294 60.1816 31.4544 60.1816C33.4794 60.1816 35.2129 60.9027 36.655 62.3447C38.097 63.7867 38.818 65.5203 38.818 67.5452C38.818 69.5702 38.097 71.3038 36.655 72.7458C35.2129 74.1878 33.4794 74.9089 31.4544 74.9089ZM53.5452 74.9089C51.5203 74.9089 49.7867 74.1878 48.3447 72.7458C46.9027 71.3038 46.1816 69.5702 46.1816 67.5452C46.1816 65.5203 46.9027 63.7867 48.3447 62.3447C49.7867 60.9027 51.5203 60.1816 53.5452 60.1816C55.5702 60.1816 57.3038 60.9027 58.7458 62.3447C60.1878 63.7867 60.9089 65.5203 60.9089 67.5452C60.9089 69.5702 60.1878 71.3038 58.7458 72.7458C57.3038 74.1878 55.5702 74.9089 53.5452 74.9089ZM9.36361 52.818C7.33861 52.818 5.6051 52.097 4.16306 50.655C2.72102 49.2129 2 47.4794 2 45.4544C2 43.4294 2.72102 41.6959 4.16306 40.2539C5.6051 38.8118 7.33861 38.0908 9.36361 38.0908C11.3886 38.0908 13.1221 38.8118 14.5642 40.2539C16.0062 41.6959 16.7272 43.4294 16.7272 45.4544C16.7272 47.4794 16.0062 49.2129 14.5642 50.655C13.1221 52.097 11.3886 52.818 9.36361 52.818ZM31.4544 52.818C29.4294 52.818 27.6959 52.097 26.2539 50.655C24.8118 49.2129 24.0908 47.4794 24.0908 45.4544C24.0908 43.4294 24.8118 41.6959 26.2539 40.2539C27.6959 38.8118 29.4294 38.0908 31.4544 38.0908C33.4794 38.0908 35.2129 38.8118 36.655 40.2539C38.097 41.6959 38.818 43.4294 38.818 45.4544C38.818 47.4794 38.097 49.2129 36.655 50.655C35.2129 52.097 33.4794 52.818 31.4544 52.818ZM53.5452 52.818C51.5203 52.818 49.7867 52.097 48.3447 50.655C46.9027 49.2129 46.1816 47.4794 46.1816 45.4544C46.1816 43.4294 46.9027 41.6959 48.3447 40.2539C49.7867 38.8118 51.5203 38.0908 53.5452 38.0908C55.5702 38.0908 57.3038 38.8118 58.7458 40.2539C60.1878 41.6959 60.9089 43.4294 60.9089 45.4544C60.9089 47.4794 60.1878 49.2129 58.7458 50.655C57.3038 52.097 55.5702 52.818 53.5452 52.818ZM9.36361 30.7272C7.33861 30.7272 5.6051 30.0062 4.16306 28.5642C2.72102 27.1221 2 25.3886 2 23.3636C2 21.3386 2.72102 19.6051 4.16306 18.1631C5.6051 16.721 7.33861 16 9.36361 16C11.3886 16 13.1221 16.721 14.5642 18.1631C16.0062 19.6051 16.7272 21.3386 16.7272 23.3636C16.7272 25.3886 16.0062 27.1221 14.5642 28.5642C13.1221 30.0062 11.3886 30.7272 9.36361 30.7272ZM31.4544 30.7272C29.4294 30.7272 27.6959 30.0062 26.2539 28.5642C24.8118 27.1221 24.0908 25.3886 24.0908 23.3636C24.0908 21.3386 24.8118 19.6051 26.2539 18.1631C27.6959 16.721 29.4294 16 31.4544 16C33.4794 16 35.2129 16.721 36.655 18.1631C38.097 19.6051 38.818 21.3386 38.818 23.3636C38.818 25.3886 38.097 27.1221 36.655 28.5642C35.2129 30.0062 33.4794 30.7272 31.4544 30.7272ZM53.5452 30.7272C51.5203 30.7272 49.7867 30.0062 48.3447 28.5642C46.9027 27.1221 46.1816 25.3886 46.1816 23.3636C46.1816 21.3386 46.9027 19.6051 48.3447 18.1631C49.7867 16.721 51.5203 16 53.5452 16C55.5702 16 57.3038 16.721 58.7458 18.1631C60.1878 19.6051 60.9089 21.3386 60.9089 23.3636C60.9089 25.3886 60.1878 27.1221 58.7458 28.5642C57.3038 30.0062 55.5702 30.7272 53.5452 30.7272Z" fill="#009DFF"/>
</g>
</svg>
