<svg width="166" height="76" viewBox="0 0 166 76" fill="none" xmlns="http://www.w3.org/2000/svg">
<path d="M0 60.3161V0H11.7959V21.2733H12.3899C13.3517 20.1054 14.4832 19.1043 15.7845 18.27C17.1423 17.3802 18.6415 16.685 20.2822 16.1844C21.9794 15.6839 23.8181 15.4336 25.7983 15.4336C28.7402 15.4336 31.3143 15.9619 33.5208 17.0187C35.7272 18.0754 37.4244 19.7439 38.6125 22.0242C39.8572 24.3044 40.4795 27.2799 40.4795 30.9506V60.3161H28.6836V32.7859C28.6836 31.3955 28.5139 30.2276 28.1744 29.2821C27.835 28.281 27.3258 27.4746 26.6469 26.8628C26.0246 26.1954 25.2325 25.7227 24.2707 25.4446C23.3089 25.1665 22.234 25.0274 21.0459 25.0274C19.2921 25.0274 17.708 25.4446 16.2936 26.2788C14.8793 27.1131 13.776 28.2532 12.984 29.6992C12.1919 31.1453 11.7959 32.8138 11.7959 34.7047V60.3161H0Z" fill="black"/>
<path d="M57.4998 76C55.4065 76 53.6527 75.8332 52.2383 75.4995C50.8805 75.2214 50.0036 75.0267 49.6075 74.9155V67.0736H54.7842C56.1985 67.0736 57.4715 66.7399 58.603 66.0725C59.7345 65.4607 60.7245 64.6264 61.5732 63.5697C62.4218 62.5686 63.0441 61.4841 63.4402 60.3161L45.9584 16.4347H58.4333L66.0709 36.7069C66.4103 37.6524 66.7781 38.8482 67.1741 40.2942C67.6267 41.6846 68.0793 43.1584 68.5319 44.7157C68.9845 46.2173 69.3522 47.5521 69.6351 48.7201H70.0594C70.2857 47.9415 70.5403 47.0238 70.8232 45.9671C71.1061 44.9104 71.3889 43.8258 71.6718 42.7135C72.0113 41.6012 72.3224 40.5445 72.6053 39.5434C72.9448 38.4867 73.2276 37.569 73.4539 36.7903L79.8186 16.4347H91.6994L76.509 58.2305C75.6604 60.6776 74.6703 62.9579 73.5388 65.0714C72.4639 67.2404 71.1909 69.1314 69.72 70.7442C68.249 72.4127 66.4952 73.6919 64.4585 74.5818C62.4784 75.5273 60.1588 76 57.4998 76Z" fill="black"/>
<path d="M115.535 61.3172C112.424 61.3172 109.623 60.9835 107.134 60.3161C104.645 59.6487 102.523 58.7311 100.769 57.5631C99.0153 56.3396 97.6575 54.8935 96.6957 53.225C95.7905 51.5565 95.3379 49.6656 95.3379 47.5521C95.3379 47.3297 95.3379 47.1072 95.3379 46.8847C95.3379 46.6623 95.3662 46.4954 95.4228 46.3842H106.794C106.794 46.4954 106.794 46.6067 106.794 46.7179C106.794 46.8291 106.794 46.9404 106.794 47.0516C106.851 48.442 107.304 49.5821 108.152 50.472C109.001 51.3063 110.104 51.918 111.462 52.3074C112.876 52.6967 114.347 52.8913 115.875 52.8913C117.232 52.8913 118.534 52.7801 119.778 52.5576C121.08 52.2795 122.155 51.8068 123.003 51.1394C123.908 50.472 124.361 49.61 124.361 48.5532C124.361 47.2184 123.795 46.1895 122.664 45.4665C121.589 44.7435 120.146 44.1595 118.336 43.7146C116.582 43.2697 114.658 42.7691 112.565 42.213C110.641 41.768 108.718 41.2675 106.794 40.7113C104.871 40.0995 103.117 39.3209 101.533 38.3754C100.005 37.4299 98.7607 36.2064 97.7989 34.7047C96.8372 33.1475 96.3563 31.2009 96.3563 28.865C96.3563 26.5847 96.8654 24.6103 97.8838 22.9418C98.9021 21.2177 100.288 19.7995 102.042 18.6872C103.852 17.5748 105.946 16.7684 108.322 16.2678C110.755 15.7117 113.357 15.4336 116.129 15.4336C118.732 15.4336 121.164 15.7117 123.427 16.2678C125.69 16.7684 127.671 17.547 129.368 18.6037C131.065 19.6048 132.395 20.884 133.356 22.4413C134.318 23.9429 134.799 25.6392 134.799 27.5302C134.799 27.9195 134.799 28.281 134.799 28.6147C134.799 28.9484 134.771 29.1709 134.714 29.2821H123.427V28.6147C123.427 27.6136 123.116 26.7794 122.494 26.112C121.872 25.389 120.966 24.8328 119.778 24.4435C118.647 24.0542 117.261 23.8595 115.62 23.8595C114.489 23.8595 113.442 23.9429 112.48 24.1098C111.575 24.2766 110.783 24.5269 110.104 24.8606C109.425 25.1943 108.888 25.6114 108.492 26.112C108.152 26.5569 107.982 27.1131 107.982 27.7805C107.982 28.7259 108.378 29.5046 109.171 30.1164C110.019 30.6725 111.122 31.1453 112.48 31.5346C113.838 31.9239 115.337 32.341 116.978 32.7859C119.015 33.3421 121.136 33.8983 123.343 34.4544C125.606 34.955 127.699 35.6502 129.622 36.5401C131.546 37.4299 133.102 38.7091 134.29 40.3776C135.478 41.9905 136.072 44.1873 136.072 46.9682C136.072 49.6378 135.535 51.8902 134.46 53.7256C133.441 55.5609 131.999 57.0348 130.132 58.1471C128.265 59.2594 126.086 60.0659 123.597 60.5664C121.108 61.067 118.421 61.3172 115.535 61.3172Z" fill="black"/>
<path d="M157.938 61.3172C155.109 61.3172 152.818 60.8167 151.064 59.8156C149.31 58.8145 148.037 57.4797 147.245 55.8112C146.453 54.0871 146.057 52.1961 146.057 50.1383V25.3611H140.541V16.4347H146.482L148.688 3.92096H157.853V16.4347H166V25.3611H157.853V48.2195C157.853 49.5543 158.164 50.5832 158.787 51.3063C159.409 51.9737 160.427 52.3074 161.842 52.3074H166V59.9824C165.321 60.2049 164.529 60.3996 163.624 60.5664C162.719 60.7889 161.757 60.9557 160.739 61.067C159.72 61.2338 158.787 61.3172 157.938 61.3172Z" fill="black"/>
</svg>
