<svg width="882" height="666" viewBox="0 0 882 666" fill="none" xmlns="http://www.w3.org/2000/svg">
<g clip-path="url(#clip0_305_8)">
<path d="M357.199 464.088C370.059 456.672 382.934 449.24 395.794 441.809C399.896 439.438 396.187 433.069 392.07 435.454C379.21 442.87 366.335 450.302 353.475 457.733C349.373 460.104 353.082 466.473 357.199 464.088Z" fill="#E0E0E0"/>
<path d="M356.661 236.887C369.521 229.47 382.396 222.039 395.256 214.607C399.358 212.237 395.649 205.867 391.532 208.252C378.672 215.684 365.797 223.1 352.937 230.532C348.835 232.902 352.544 239.272 356.661 236.887Z" fill="#E0E0E0"/>
<path d="M549.255 206.871C562.203 214.346 575.15 221.806 588.083 229.281C592.2 231.652 595.909 225.296 591.807 222.926C578.86 215.451 565.912 207.99 552.98 200.516C548.863 198.145 545.153 204.5 549.255 206.871Z" fill="#E0E0E0"/>
<path d="M746.359 320.624C759.307 328.099 772.254 335.56 785.187 343.035C789.304 345.405 793.013 339.05 788.911 336.679C775.964 329.204 763.016 321.744 750.084 314.269C745.967 311.898 742.257 318.254 746.359 320.624Z" fill="#E0E0E0"/>
<path d="M764.034 456.802C776.894 449.386 789.769 441.954 802.629 434.523C806.731 432.153 803.022 425.783 798.905 428.168C786.045 435.599 773.185 443.016 760.31 450.447C756.208 452.818 759.917 459.187 764.034 456.802Z" fill="#E0E0E0"/>
<path d="M567.483 570.236C580.343 562.805 593.218 555.388 606.078 547.956C610.18 545.586 606.471 539.216 602.354 541.601C589.494 549.033 576.634 556.449 563.759 563.881C559.657 566.251 563.367 572.621 567.483 570.236Z" fill="#E0E0E0"/>
<path d="M160.095 350.335C172.955 342.904 185.83 335.487 198.69 328.055C202.792 325.685 199.083 319.315 194.966 321.7C182.106 329.117 169.246 336.548 156.371 343.98C152.269 346.35 155.978 352.72 160.095 350.335Z" fill="#E0E0E0"/>
<path d="M282.673 325.045L196.566 275.338V241.381L282.673 291.088V325.045Z" fill="#E0E0E0"/>
<path d="M282.672 325.045L368.255 275.643V241.701L282.672 291.088V325.045Z" fill="#6BA2D6"/>
<path d="M282.672 325.045L368.255 275.643V241.701L282.672 291.088V325.045Z" fill="#8F9299"/>
<path d="M282.673 291.088L196.566 241.381L282.134 191.993L368.255 241.701L282.673 291.088Z" fill="#7C7F86"/>
<path d="M86.1212 438.493L0 388.786V354.829L86.1212 404.536V438.493Z" fill="#E0E0E0"/>
<path d="M86.1211 438.493L171.689 389.091V355.149L86.1211 404.536V438.493Z" fill="#8F9299"/>
<path d="M86.1212 404.536L0 354.829L85.5829 305.441L171.69 355.149L86.1212 404.536Z" fill="#7C7F86"/>
<path d="M676.328 325.351L761.911 275.963V242.006L676.328 291.393V325.351Z" fill="#8F9299"/>
<path d="M676.328 291.393V325.351L590.221 275.643V241.701L676.328 291.393Z" fill="#E0E0E0"/>
<path d="M761.911 242.006L676.328 291.393L590.221 241.701L675.79 192.299L761.911 242.006Z" fill="#7C7F86"/>
<path d="M676.866 552.552L762.449 503.165V469.207L676.866 518.595V552.552Z" fill="#8F9299"/>
<path d="M676.866 518.595V552.552L590.759 502.859V468.902L676.866 518.595Z" fill="#E0E0E0"/>
<path d="M762.449 469.207L676.866 518.595L590.759 468.902L676.328 419.5L762.449 469.207Z" fill="#7C7F86"/>
<path d="M283.21 552.247L368.793 502.859V468.902L283.21 518.289V552.247Z" fill="#6BA2D6"/>
<path d="M283.21 552.247L368.793 502.859V468.902L283.21 518.289V552.247Z" fill="#8F9299"/>
<path d="M283.211 518.289V552.247L197.104 502.539V468.582L283.211 518.289Z" fill="#E0E0E0"/>
<path d="M368.794 468.902L283.211 518.289L197.104 468.582L282.672 419.195L368.794 468.902Z" fill="#7C7F86"/>
<path d="M282.673 285.765L196.566 236.073V202.115L282.673 251.808V285.765Z" fill="#E0E0E0"/>
<path d="M282.672 285.765L368.255 236.378V202.421L282.672 251.808V285.765Z" fill="#6BA2D6"/>
<path d="M282.672 285.765L368.255 236.378V202.421L282.672 251.808V285.765Z" fill="#8F9299"/>
<path d="M282.673 251.808L196.566 202.115L282.134 152.713L368.255 202.421L282.673 251.808Z" fill="#EFEFEF"/>
<path d="M86.1212 399.213L0 349.521V315.563L86.1212 365.256V399.213Z" fill="#E0E0E0"/>
<path d="M86.1211 399.213L171.689 349.826V315.869L86.1211 365.256V399.213Z" fill="#8F9299"/>
<path d="M86.1212 365.256L0 315.563L85.5829 266.161L171.69 315.869L86.1212 365.256Z" fill="#A8ABB2"/>
<path d="M86.0628 354.989L17.8496 315.621L85.6264 276.501L153.84 315.869L86.0628 354.989Z" fill="#7C7F86"/>
<path d="M676.328 286.085L761.911 236.683V202.726L676.328 252.128V286.085Z" fill="#8F9299"/>
<path d="M676.328 252.128V286.085L590.221 236.378V202.421L676.328 252.128Z" fill="#E0E0E0"/>
<path d="M761.911 202.726L676.328 252.128L590.221 202.421L675.79 153.033L761.911 202.726Z" fill="#EFEFEF"/>
<path d="M676.866 513.287L762.449 463.885V429.942L676.866 479.329V513.287Z" fill="#8F9299"/>
<path d="M676.866 479.329V513.287L590.759 463.579V429.622L676.866 479.329Z" fill="#E0E0E0"/>
<path d="M762.449 429.942L676.866 479.329L590.759 429.622L676.328 380.235L762.449 429.942Z" fill="#EFEFEF"/>
<path d="M873.432 439.104L787.311 389.411V355.454L873.432 405.161V439.104Z" fill="#E0E0E0"/>
<path d="M873.432 439.104L959 389.717V355.759L873.432 405.161V439.104Z" fill="#8F9299"/>
<path d="M873.432 405.161L787.311 355.454L872.893 306.067L959 355.759L873.432 405.161Z" fill="#7C7F86"/>
<path d="M873.432 399.839L787.311 350.131V316.174L873.432 365.881V399.839Z" fill="#E0E0E0"/>
<path d="M873.432 399.839L959 350.437V316.494L873.432 365.881V399.839Z" fill="#8F9299"/>
<path d="M873.432 365.881L787.311 316.174L872.893 266.787L959 316.494L873.432 365.881Z" fill="#A8ABB2"/>
<path d="M873.373 355.614L805.175 316.247L872.952 277.127L941.15 316.494L873.373 355.614Z" fill="#7C7F86"/>
<path d="M873.373 339.951L805.175 300.584V266.641L873.373 305.994V339.951Z" fill="#E0E0E0"/>
<path d="M873.374 339.951L941.15 300.831V266.874L873.374 305.994V339.951Z" fill="#8F9299"/>
<path d="M873.373 305.994L805.175 266.641L872.952 227.521L941.15 266.874L873.373 305.994Z" fill="#EFEFEF"/>
<path d="M901.043 266.932L873.242 282.973L845.268 266.83L873.068 250.79L901.043 266.932Z" fill="#009DFF"/>
<path d="M480.315 666L394.193 616.307V582.35L480.315 632.043V666Z" fill="#E0E0E0"/>
<path d="M480.314 666L565.883 616.613V582.655L480.314 632.043V666Z" fill="#8F9299"/>
<path d="M480.315 632.043L394.193 582.35L479.776 532.948L565.883 582.655L480.315 632.043Z" fill="#7C7F86"/>
<path d="M480.315 626.735L394.193 577.027V543.07L480.315 592.777V626.735Z" fill="#E0E0E0"/>
<path d="M480.314 626.735L565.883 577.333V543.39L480.314 592.777V626.735Z" fill="#8F9299"/>
<path d="M480.315 592.777L394.193 543.07L479.776 493.683L565.883 543.39L480.315 592.777Z" fill="#A8ABB2"/>
<path d="M480.256 582.496L412.043 543.128L479.834 504.008L548.033 543.376L480.256 582.496Z" fill="#7C7F86"/>
<path d="M480.256 566.848L412.043 527.48V493.523L480.256 532.89V566.848Z" fill="#E0E0E0"/>
<path d="M480.256 566.848L548.033 527.728V493.77L480.256 532.89V566.848Z" fill="#8F9299"/>
<path d="M480.256 532.89L412.043 493.523L479.834 454.403L548.033 493.77L480.256 532.89Z" fill="#EFEFEF"/>
<path d="M507.925 493.828L480.125 509.869L452.15 493.727L479.951 477.686L507.925 493.828Z" fill="#009DFF"/>
<path d="M283.21 512.967L368.793 463.579V429.622L283.21 479.024V512.967Z" fill="#6BA2D6"/>
<path d="M283.21 512.967L368.793 463.579V429.622L283.21 479.024V512.967Z" fill="#8F9299"/>
<path d="M283.211 479.024V512.967L197.104 463.274V429.317L283.211 479.024Z" fill="#E0E0E0"/>
<path d="M368.794 429.622L283.211 479.024L197.104 429.317L282.672 379.929L368.794 429.622Z" fill="#EFEFEF"/>
<path d="M479.238 211.597L393.117 161.89V127.933L479.238 177.64V211.597Z" fill="#E0E0E0"/>
<path d="M479.238 211.597L564.807 162.195V128.253L479.238 177.64V211.597Z" fill="#6BA2D6"/>
<path d="M479.238 177.64L393.117 127.933L478.7 78.5454L564.807 128.253L479.238 177.64Z" fill="#7C7F86"/>
<path d="M479.238 172.317L393.117 122.625V88.6672L479.238 138.374V172.317Z" fill="#E0E0E0"/>
<path d="M479.238 172.317L564.807 122.93V88.9726L479.238 138.374V172.317Z" fill="#6BA2D6"/>
<path d="M479.238 138.374L393.117 88.6672L478.7 39.28L564.807 88.9726L479.238 138.374Z" fill="#7C7F86"/>
<path d="M479.18 128.093L410.967 88.7253L478.758 49.6053L546.957 88.9726L479.18 128.093Z" fill="#5493D2"/>
<path d="M479.18 112.445L410.967 73.0773V39.12L479.18 78.4872V112.445Z" fill="#E0E0E0"/>
<path d="M479.18 112.445L546.957 73.3246V39.3672L479.18 78.4873V112.445Z" fill="#8F9299"/>
<path d="M479.18 78.4873L410.967 39.12L478.758 0L546.957 39.3672L479.18 78.4873Z" fill="#EFEFEF"/>
<path d="M506.849 39.4109L479.049 55.4661L451.074 39.3091L478.874 23.2684L506.849 39.4109Z" fill="#009DFF"/>
<path d="M86.0628 339.341L17.8496 299.973V266.016L86.0628 305.383V339.341Z" fill="#E0E0E0"/>
<path d="M86.063 339.341L153.84 300.221V266.263L86.063 305.383V339.341Z" fill="#8F9299"/>
<path d="M86.0628 305.383L17.8496 266.016L85.6264 226.896L153.84 266.263L86.0628 305.383Z" fill="#EFEFEF"/>
<path d="M711.271 202.639L676.168 222.897L640.846 202.508L675.949 182.25L711.271 202.639Z" fill="#009DFF"/>
<path d="M317.615 202.333L282.512 222.591L247.191 202.202L282.294 181.944L317.615 202.333Z" fill="#009DFF"/>
<path d="M712.086 432.414L676.982 452.672L641.661 432.283L676.764 412.025L712.086 432.414Z" fill="#009DFF"/>
<path d="M318.153 429.535L283.05 449.793L247.729 429.404L282.832 409.146L318.153 429.535Z" fill="#009DFF"/>
<path d="M113.47 266.22L85.6701 282.26L57.6953 266.118L85.4956 250.077L113.47 266.22Z" fill="#009DFF"/>
<path d="M330.374 265.289C355.09 279.555 379.806 293.822 404.522 308.088C408.639 310.459 412.349 304.104 408.246 301.733C383.53 287.467 358.814 273.2 334.098 258.934C329.981 256.563 326.271 262.918 330.374 265.289Z" fill="#E0E0E0"/>
<path d="M156.138 433.767C169.086 441.242 182.033 448.702 194.966 456.177C199.082 458.548 202.792 452.192 198.69 449.822C185.742 442.347 172.795 434.887 159.862 427.412C155.745 425.041 152.036 431.396 156.138 433.767Z" fill="#E0E0E0"/>
<path d="M553.751 350.655C566.611 343.224 579.471 335.807 592.345 328.375C596.447 326.005 592.738 319.635 588.621 322.02C575.761 329.452 562.886 336.868 550.026 344.3C545.924 346.67 549.634 353.04 553.751 350.655Z" fill="#E0E0E0"/>
<path d="M549.794 434.072C562.741 441.547 575.688 449.008 588.621 456.483C592.738 458.853 596.447 452.498 592.345 450.127C579.398 442.652 566.45 435.192 553.518 427.717C549.401 425.346 545.691 431.702 549.794 434.072Z" fill="#E0E0E0"/>
<path d="M353.228 547.52C366.175 554.995 379.122 562.456 392.055 569.931C396.172 572.301 399.881 565.946 395.779 563.575C382.832 556.1 369.884 548.64 356.952 541.165C352.835 538.794 349.125 545.15 353.228 547.52Z" fill="#E0E0E0"/>
<path d="M356.981 340.795C356.297 344.314 353.519 347.805 350.798 348.575L330.868 354.174C329.937 354.436 329.137 354.349 328.512 353.985L486.818 445.954C487.443 446.317 488.243 446.404 489.174 446.143L509.104 440.544C511.839 439.773 514.603 436.283 515.287 432.763L356.981 340.795Z" fill="#EFEFEF"/>
<path d="M342.026 333.116L334.578 335.21C330.665 336.316 326.664 341.333 325.675 346.408L325.02 349.753C324.366 353.098 325.18 355.643 326.941 356.676L485.246 448.644C483.486 447.626 482.672 445.081 483.326 441.722L483.981 438.377C484.985 433.301 488.971 428.27 492.884 427.179L500.332 425.085L342.026 333.116Z" fill="#E0E0E0"/>
<path d="M588.083 147.129L429.777 55.1606L430.33 52.3394L588.636 144.308L588.083 147.129Z" fill="#B7C3DD"/>
<path d="M596.826 117.898L438.52 25.9297C440.062 26.8314 440.789 29.071 440.207 32.0231L438.156 42.5085C437.283 46.9585 433.777 51.3795 430.33 52.3394L588.635 144.308C592.069 143.348 595.589 138.927 596.462 134.477L598.513 123.992C599.095 121.039 598.368 118.8 596.826 117.898Z" fill="#E0E0E0"/>
<path d="M515.287 432.763L356.981 340.795L416.218 38.7564L574.524 130.739L515.287 432.763Z" fill="#EFEFEF"/>
<path d="M594.425 114.844C599.051 113.55 601.874 117.375 600.695 123.381L598.644 133.866C597.466 139.872 592.723 145.835 588.097 147.129L588.65 144.308C592.083 143.348 595.604 138.927 596.476 134.477L598.528 124.006C599.401 119.556 597.32 116.706 593.873 117.665L584.518 120.298C581.085 121.257 577.579 125.678 576.706 130.129L517.469 432.152C516.48 437.213 512.479 442.231 508.566 443.336L488.636 448.935C484.708 450.04 482.337 446.812 483.341 441.736L483.995 438.391C484.999 433.301 488.985 428.284 492.898 427.193L500.347 425.099L499.794 427.921L492.346 430.015C489.625 430.785 486.832 434.276 486.148 437.795L485.494 441.14C484.81 444.659 486.454 446.913 489.189 446.143L509.119 440.544C511.839 439.773 514.618 436.283 515.301 432.763L574.539 130.739C575.717 124.733 580.445 118.785 585.071 117.476L594.44 114.844H594.425Z" fill="#E4E7ED"/>
<path d="M440.105 23.1957C439.043 22.5703 437.676 22.4249 436.119 22.8612L426.765 25.4934C422.139 26.7877 417.411 32.7503 416.233 38.7564L574.539 130.725C575.717 124.719 580.445 118.771 585.071 117.462L594.425 114.83C595.996 114.393 597.349 114.539 598.411 115.15L440.105 23.1811V23.1957Z" fill="#E0E0E0"/>
<path d="M522.255 160.843L449.823 118.989C447.757 117.796 446.521 114.611 447.044 111.863C447.568 109.114 449.663 107.849 451.729 109.042L524.161 150.896C526.226 152.088 527.463 155.273 526.939 158.022C526.416 160.77 524.321 162.035 522.255 160.843Z" fill="#004A78"/>
<path d="M529.311 210.39L427.056 151.303C424.991 150.11 423.754 146.925 424.278 144.177C424.802 141.428 426.896 140.163 428.962 141.356L531.216 200.443C533.282 201.635 534.519 204.82 533.995 207.569C533.471 210.317 531.377 211.583 529.311 210.39Z" fill="#004A78"/>
<path d="M524.83 233.818L422.576 174.731C420.51 173.539 419.274 170.354 419.797 167.605C420.321 164.857 422.416 163.591 424.482 164.784L526.736 223.871C528.802 225.064 530.038 228.249 529.515 230.997C528.991 233.746 526.896 235.011 524.83 233.818Z" fill="#004A78"/>
<path d="M498.965 244.9L418.066 198.16C416 196.967 414.764 193.782 415.288 191.034C415.811 188.285 417.906 187.02 419.972 188.212L500.87 234.953C502.936 236.145 504.173 239.33 503.649 242.079C503.125 244.827 501.031 246.092 498.965 244.9Z" fill="#004A78"/>
<path d="M515.84 280.675L413.585 221.588C411.519 220.395 410.283 217.211 410.807 214.462C411.33 211.713 413.425 210.448 415.491 211.641L517.745 270.728C519.811 271.92 521.048 275.105 520.524 277.854C520 280.602 517.905 281.868 515.84 280.675Z" fill="#004A78"/>
<path d="M507.17 366.754L452.704 335.283C452.311 335.051 452.064 334.44 452.166 333.902C452.267 333.364 452.675 333.116 453.082 333.349L507.548 364.82C507.941 365.052 508.188 365.663 508.086 366.201C507.984 366.739 507.577 366.986 507.17 366.754Z" fill="#E0E0E0"/>
<path d="M440.367 263.093L409.105 245.031C407.039 243.838 405.802 240.654 406.326 237.905C406.85 235.156 408.945 233.891 411.01 235.084L442.273 253.146C444.339 254.338 445.575 257.523 445.052 260.272C444.528 263.02 442.433 264.285 440.367 263.093Z" fill="#004A78"/>
<path d="M506.18 353.971C500.958 353.142 497.612 350.393 495.997 345.609C495.313 345.609 494.804 345.55 494.542 345.521C489.16 344.823 485.13 342.584 482.584 338.861C480.489 335.807 479.558 332.346 480.068 329.539C480.038 329.51 480.024 329.495 479.995 329.466C479.282 330.949 477.973 332.055 476.067 332.782C471.397 334.571 465.782 333.422 461.403 329.771C459.25 327.983 457.388 325.554 456.021 322.776C454.551 319.81 454.624 316.29 456.195 314.022C457.723 311.84 460.501 311.913 461.389 311.884C466.247 311.957 470.321 315.098 473.987 318.486C475.325 319.722 476.329 320.973 477.289 322.282C476.823 321.206 476.213 320.057 475.441 318.806L474.903 317.934C473.085 315.011 471.194 311.971 470.903 308.597C470.466 303.551 473.929 300.439 477.405 300.075C479.355 299.857 480.868 300.439 482.512 301.326C483.894 302.082 485.465 303.027 486.73 304.613C487.952 306.154 488.898 308.583 488.287 310.561L486.09 309.877C486.396 308.903 485.887 307.259 484.926 306.038C483.937 304.802 482.643 304.016 481.406 303.333C479.849 302.475 478.831 302.213 477.653 302.344C475.252 302.591 472.881 304.787 473.187 308.379C473.434 311.215 475.165 314.007 476.838 316.712L477.376 317.599C479.617 321.235 480.679 324.245 480.62 326.732C480.737 326.863 480.853 327.008 480.97 327.139C481.479 326.31 482.177 325.627 483.021 325.118C483.995 324.522 485.072 323.94 486.308 323.664C488.622 323.155 491.851 323.998 494.164 325.743C495.823 326.979 496.885 328.724 497.088 330.542C497.248 332.04 496.826 333.48 495.866 334.6C494.004 336.796 489.494 337.45 482.89 332.142C482.657 331.953 482.439 331.778 482.235 331.589C482.337 333.465 483.123 335.589 484.475 337.552C486.672 340.751 490.062 342.613 494.848 343.238C494.935 343.238 495.139 343.282 495.415 343.296C494.95 340.533 495.372 337.77 496.608 335.676C497.263 334.556 499.663 331.371 502.471 331.706C503.46 331.807 504.798 332.418 505.584 334.716C506.399 337.072 505.773 339.893 504.769 341.362C502.994 343.965 500.463 345.012 498.339 345.39C499.343 348.081 501.351 350.858 506.529 351.702L506.166 353.971H506.18ZM502.136 333.989C501.016 333.989 499.285 335.676 498.587 336.854C497.597 338.512 497.292 340.868 497.728 343.165C499.43 342.889 501.511 342.104 502.893 340.068C503.562 339.093 503.955 336.956 503.431 335.458C503.213 334.818 502.834 334.047 502.253 333.989C502.209 333.989 502.18 333.989 502.151 333.989H502.136ZM482.642 328.884C483.152 329.364 483.719 329.859 484.33 330.353C489.276 334.338 492.869 334.585 494.12 333.116C494.659 332.476 494.906 331.677 494.804 330.804C494.673 329.626 493.931 328.448 492.782 327.59C491.036 326.267 488.476 325.569 486.803 325.918C485.887 326.121 485.014 326.601 484.214 327.096C483.501 327.532 482.977 328.128 482.642 328.899V328.884ZM461.199 314.182C459.599 314.182 458.639 314.545 458.086 315.331C456.981 316.916 456.981 319.548 458.086 321.758C459.308 324.216 461.01 326.441 462.887 328.012C466.64 331.124 471.383 332.142 475.252 330.644C476.896 330.019 477.842 329.088 478.191 327.779C478.22 327.677 478.249 327.561 478.264 327.459C477.522 326.528 476.882 325.641 476.271 324.798C475.092 323.155 473.987 321.613 472.43 320.173C469.099 317.105 465.447 314.24 461.36 314.182H461.214H461.199Z" fill="#004A78"/>
<path d="M352.893 243.838L361.359 238.952C377.391 251.153 387.137 253.582 394.324 255.516C401.525 261.886 411.257 270.699 427.288 276.996V311.768C427.288 325.787 421.746 332.84 415.214 336.258L406.747 341.144L407.213 338.846C400.332 339.966 394.324 338.628 394.324 338.628C394.324 338.628 361.359 307.928 361.359 273.709V253.277L352.893 243.824V243.838Z" fill="#8F9299"/>
<path d="M427.289 277.01L418.822 281.897L400.681 276.938L385.857 260.403L394.324 255.516C401.525 261.886 411.257 270.699 427.289 276.996V277.01Z" fill="#8F9299"/>
<path d="M353.809 243.315L361.359 238.952C377.391 251.153 387.137 253.582 394.324 255.516L385.857 260.403L367.716 260.373L352.893 243.838L353.809 243.3V243.315Z" fill="#8F9299"/>
<path d="M385.858 260.403C393.059 266.772 402.791 275.585 418.822 281.882V316.654C418.822 350.873 385.858 343.514 385.858 343.514C385.858 343.514 352.878 312.815 352.878 278.596V243.824C368.91 256.025 378.657 258.454 385.843 260.388L385.858 260.403Z" fill="white"/>
<path d="M385.858 336.258C388.505 336.592 393.713 336.912 398.849 335.37C408.144 332.564 412.858 325.118 412.858 313.222V286.172C410.676 285.111 408.523 283.976 406.442 282.769C397.539 277.621 390.847 271.891 385.858 267.485C380.868 266.132 374.176 264.155 365.273 259.006C363.193 257.799 361.04 256.461 358.857 254.993V282.042C358.857 293.938 363.571 306.823 372.867 320.362C378.002 327.837 383.21 333.538 385.858 336.258Z" fill="#8F9299"/>
<path d="M387.967 335.036C385.319 332.317 380.111 326.63 374.976 319.141C365.68 305.601 360.967 292.717 360.967 280.821V256.374C362.422 257.305 363.862 258.192 365.273 259.006C374.19 264.155 380.868 266.132 385.858 267.485C390.847 271.891 397.539 277.636 406.442 282.769C408.523 283.976 410.676 285.111 412.858 286.172V313.222C412.858 322.529 409.948 329.117 404.231 332.884C403.213 333.378 402.122 333.8 400.972 334.149C395.837 335.705 390.629 335.37 387.982 335.036H387.967Z" fill="#009DFF"/>
<path d="M389.713 318.53L386.294 320.522C386.44 320.435 386.6 320.333 386.731 320.217L390.15 318.225C390.004 318.341 389.859 318.443 389.713 318.53Z" fill="#C6C0D0"/>
<path d="M366.175 288.732L369.593 286.74C370.772 286.056 372.314 286.26 373.87 287.161C375.296 287.99 376.736 289.401 377.871 291.233L374.452 293.226C373.303 291.379 371.877 289.968 370.452 289.154C368.895 288.252 367.353 288.048 366.175 288.732Z" fill="#8F9299"/>
<path d="M374.467 293.24L377.886 291.248L384.2 301.442L380.781 303.435L374.467 293.24Z" fill="#8F9299"/>
<path d="M404.144 306.038L407.562 304.045L390.149 318.239L386.73 320.217L404.144 306.038Z" fill="#8F9299"/>
<path d="M395.255 291.67L398.674 289.677C399.838 288.994 401.394 289.197 402.951 290.099L399.532 292.091C397.976 291.19 396.419 290.986 395.255 291.67Z" fill="#8F9299"/>
<path d="M399.547 292.091L402.966 290.099C404.304 290.87 405.657 292.164 406.762 293.865C409.323 297.777 409.672 302.329 407.548 304.045L404.129 306.038C406.253 304.322 405.904 299.77 403.344 295.858C402.224 294.156 400.885 292.862 399.547 292.091Z" fill="#8F9299"/>
<path d="M399.547 292.091C400.885 292.862 402.238 294.156 403.344 295.858C405.904 299.77 406.253 304.322 404.129 306.038L386.716 320.217C385.305 321.366 383.283 321.191 381.246 320.028C379.573 319.054 377.886 317.396 376.533 315.229L366.393 298.868C363.935 294.898 363.746 290.419 365.957 288.877C367.15 288.048 368.794 288.223 370.437 289.168C371.863 289.997 373.303 291.408 374.438 293.24L380.752 303.435L394.863 291.917C396.056 290.957 397.787 291.088 399.518 292.091H399.547Z" fill="white"/>
</g>
<defs>
<clipPath id="clip0_305_8">
<rect width="959" height="666" fill="white"/>
</clipPath>
</defs>
</svg>
