<svg width="170" height="36" viewBox="0 0 170 36" fill="none" xmlns="http://www.w3.org/2000/svg">
<g clip-path="url(#clip0_227_835)">
<path d="M140.943 19.1171C140.116 19.1171 139.315 18.9535 138.554 18.6179C137.793 18.2824 137.122 17.7996 136.542 17.1694L137.31 16.3756C137.85 16.9567 138.431 17.3904 139.045 17.685C139.658 17.9796 140.305 18.1187 140.984 18.1187C141.532 18.1187 142.022 18.0287 142.448 17.8569C142.873 17.685 143.209 17.4395 143.446 17.1203C143.683 16.8012 143.806 16.4493 143.806 16.0483C143.806 15.5081 143.618 15.0908 143.241 14.8043C142.865 14.5179 142.252 14.297 141.393 14.1578L139.879 13.9205C138.865 13.7486 138.12 13.454 137.646 13.0203C137.163 12.5866 136.926 12.0055 136.926 11.2608C136.926 10.6798 137.081 10.1724 137.392 9.73046C137.703 9.28855 138.137 8.94483 138.693 8.69932C139.249 8.45381 139.887 8.33105 140.624 8.33105C141.36 8.33105 142.088 8.45381 142.808 8.69114C143.52 8.92846 144.174 9.28036 144.763 9.73046L144.1 10.6307C142.947 9.7632 141.777 9.32128 140.575 9.32128C140.075 9.32128 139.634 9.39493 139.257 9.55042C138.881 9.70591 138.578 9.91869 138.374 10.1969C138.161 10.4752 138.055 10.7943 138.055 11.1626C138.055 11.6536 138.219 12.0301 138.554 12.292C138.881 12.5538 139.429 12.7421 140.19 12.8648L141.687 13.1021C142.841 13.2904 143.675 13.6177 144.19 14.0678C144.714 14.5261 144.967 15.1644 144.967 15.9828C144.967 16.5966 144.796 17.1367 144.46 17.6113C144.117 18.086 143.65 18.4543 143.045 18.7243C142.44 18.9862 141.744 19.1253 140.951 19.1253L140.943 19.1171Z" fill="white"/>
<path d="M146.882 10.0005C146.685 10.0005 146.505 9.92689 146.358 9.77958C146.211 9.63228 146.137 9.45224 146.137 9.23946C146.137 9.02668 146.211 8.86301 146.358 8.72389C146.505 8.57658 146.685 8.50293 146.882 8.50293C147.094 8.50293 147.266 8.57658 147.413 8.72389C147.561 8.87119 147.634 9.04305 147.634 9.25583C147.634 9.4686 147.561 9.63228 147.413 9.77958C147.266 9.92689 147.094 10.0005 146.882 10.0005ZM146.325 18.9617V11.4409H147.438V18.9617H146.325Z" fill="white"/>
<path d="M152.985 22.1779C152.461 22.1779 151.946 22.1124 151.438 21.9733C150.931 21.8341 150.465 21.6459 150.04 21.3922L150.522 20.5248C150.972 20.7621 151.389 20.9421 151.774 21.0485C152.158 21.1549 152.543 21.2122 152.935 21.2122C153.647 21.2122 154.187 21.0403 154.555 20.7048C154.923 20.3693 155.111 19.8619 155.111 19.2072V18.1597C154.424 18.7407 153.623 19.0271 152.723 19.0271C152.036 19.0271 151.406 18.8553 150.833 18.5198C150.26 18.176 149.81 17.7178 149.475 17.1285C149.14 16.5393 148.976 15.8928 148.976 15.1726C148.976 14.4525 149.14 13.7978 149.475 13.2167C149.81 12.6357 150.26 12.1692 150.833 11.8255C151.406 11.4818 152.044 11.3181 152.755 11.3181C153.189 11.3181 153.606 11.3918 154.007 11.5473C154.416 11.6946 154.784 11.9155 155.128 12.2101V11.4572H156.224V19.199C156.224 20.1565 155.946 20.9012 155.381 21.4168C154.817 21.9323 154.023 22.186 152.985 22.186V22.1779ZM152.821 18.0533C153.304 18.0533 153.737 17.9633 154.138 17.7832C154.539 17.6032 154.866 17.3495 155.111 17.014V13.3231C154.858 13.004 154.531 12.7503 154.13 12.5702C153.721 12.3902 153.287 12.3002 152.821 12.3002C152.297 12.3002 151.831 12.4229 151.422 12.6766C151.005 12.9303 150.678 13.2658 150.44 13.7077C150.203 14.1415 150.08 14.6325 150.08 15.1726C150.08 15.7128 150.203 16.2038 150.449 16.6375C150.694 17.0712 151.021 17.415 151.438 17.6768C151.856 17.9305 152.314 18.0615 152.829 18.0615L152.821 18.0533Z" fill="white"/>
<path d="M158.122 18.9617V11.4409H159.235V12.3247C159.824 11.6373 160.617 11.2854 161.607 11.2854C162.18 11.2854 162.679 11.4082 163.112 11.6537C163.546 11.8992 163.889 12.2429 164.135 12.6766C164.38 13.1104 164.503 13.6177 164.503 14.1988V18.9535H163.407V14.4197C163.407 13.7487 163.219 13.2249 162.842 12.8321C162.466 12.4475 161.951 12.2511 161.304 12.2511C160.854 12.2511 160.454 12.3493 160.102 12.5539C159.75 12.7503 159.464 13.0367 159.235 13.4132V18.9535H158.122V18.9617Z" fill="white"/>
<path d="M140.493 35.8526V26.3841H136.697V25.3447H145.442V26.3841H141.646V35.8526H140.493Z" fill="white"/>
<path d="M145.892 35.8527V28.3319H147.004V29.3958C147.233 29.0029 147.528 28.7002 147.88 28.4874C148.231 28.2746 148.641 28.1682 149.099 28.1682C149.36 28.1682 149.598 28.2009 149.802 28.2746V29.2976C149.671 29.2485 149.54 29.2157 149.409 29.1912C149.279 29.1748 149.148 29.1584 149.017 29.1584C148.559 29.1584 148.158 29.2894 147.806 29.5594C147.463 29.8213 147.193 30.206 146.988 30.7052V35.8527H145.875H145.892Z" fill="white"/>
<path d="M153.819 35.9999C153.246 35.9999 152.747 35.8771 152.306 35.6316C151.864 35.3861 151.52 35.0424 151.275 34.6087C151.029 34.1749 150.907 33.6675 150.907 33.0865V28.3318H152.003V32.8655C152.003 33.5366 152.191 34.0604 152.576 34.445C152.952 34.8296 153.467 35.026 154.105 35.026C154.555 35.026 154.956 34.9278 155.316 34.7151C155.668 34.5105 155.962 34.224 156.175 33.8558V28.3318H157.288V35.8526H156.175V34.9851C155.586 35.6644 154.801 36.0081 153.819 36.0081V35.9999Z" fill="white"/>
<path d="M161.574 36.0001C160.952 36.0001 160.372 35.8937 159.823 35.6891C159.275 35.4845 158.809 35.1981 158.408 34.8298L159.087 34.1097C159.439 34.4288 159.823 34.6744 160.241 34.8544C160.658 35.0263 161.091 35.1163 161.533 35.1163C162.13 35.1163 162.621 34.9935 163.006 34.7398C163.39 34.4861 163.578 34.167 163.578 33.766C163.578 33.4386 163.464 33.1767 163.243 32.9967C163.022 32.8085 162.662 32.6857 162.188 32.6121L160.879 32.432C160.126 32.3256 159.57 32.0965 159.21 31.7528C158.842 31.4091 158.662 30.9508 158.662 30.3697C158.662 29.9524 158.785 29.5759 159.022 29.2404C159.259 28.913 159.594 28.6512 160.02 28.4629C160.445 28.2747 160.936 28.1765 161.484 28.1765C162.032 28.1765 162.548 28.2584 163.03 28.4138C163.513 28.5775 163.979 28.823 164.437 29.1667L163.848 29.9196C163.431 29.6332 163.022 29.4204 162.629 29.2813C162.237 29.1422 161.836 29.0767 161.419 29.0767C160.895 29.0767 160.478 29.1913 160.159 29.4204C159.84 29.6496 159.676 29.9524 159.676 30.3206C159.676 30.6644 159.783 30.918 160.003 31.0899C160.224 31.2618 160.576 31.3845 161.067 31.4582L162.376 31.6382C163.128 31.7364 163.685 31.9574 164.061 32.3011C164.437 32.6448 164.625 33.1031 164.625 33.7005C164.625 34.1342 164.486 34.5189 164.216 34.8708C163.946 35.2227 163.586 35.4927 163.128 35.6973C162.67 35.9019 162.155 36.0001 161.574 36.0001Z" fill="white"/>
<path d="M168.667 35.9999C168.012 35.9999 167.513 35.8444 167.17 35.5334C166.826 35.2224 166.646 34.7723 166.646 34.1831V29.2729H165.026V28.3236H166.646V26.4168L167.742 26.1304V28.3236H170.008V29.2729H167.742V33.8967C167.742 34.2977 167.832 34.5841 168.012 34.756C168.192 34.9278 168.487 35.0178 168.896 35.0178C169.108 35.0178 169.297 35.0015 169.46 34.9769C169.624 34.9524 169.804 34.8951 169.992 34.8296V35.8035C169.804 35.8771 169.591 35.9262 169.354 35.9508C169.117 35.9835 168.888 35.9917 168.675 35.9917L168.667 35.9999Z" fill="white"/>
<path d="M116.622 35.9509C113.653 35.9509 111.395 35.2716 109.857 33.905C108.319 32.5383 107.55 30.5578 107.55 27.9636V14.4278H102.003V8.51101H107.55V2.23413H114.601V8.50283H122.381V14.4196H114.601V26.4578C114.601 27.7017 114.888 28.5938 115.46 29.1257C116.033 29.6658 116.99 29.9277 118.34 29.9277C119.068 29.9277 119.714 29.8868 120.287 29.7968C120.86 29.7067 121.489 29.5594 122.177 29.3548V35.1653C121.449 35.4108 120.549 35.599 119.477 35.7381C118.405 35.8772 117.456 35.9427 116.622 35.9427V35.9509Z" fill="white"/>
<path d="M26.3496 35.5336V8.51112H33.5076V11.5227C34.3338 10.3443 35.3646 9.44406 36.5917 8.8221C37.8187 8.20014 39.1931 7.88916 40.7147 7.88916C42.0644 7.92189 43.0461 8.1183 43.6678 8.46202V14.7389C43.1116 14.4934 42.5389 14.3052 41.9336 14.166C41.3282 14.0269 40.6983 13.9614 40.0439 13.9614C38.6613 13.9614 37.4015 14.3133 36.2563 15.0253C35.1192 15.7373 34.2029 16.7275 33.5076 18.0042V35.5336H26.3496Z" fill="white"/>
<path d="M55.3823 36C53.4844 36 51.7829 35.6481 50.3022 34.9362C48.8133 34.2242 47.6599 33.2503 46.8255 32.0064C45.9992 30.7625 45.582 29.3303 45.582 27.7018C45.582 25.1076 46.5473 23.0944 48.4861 21.6622C50.4249 20.2301 53.1163 19.5099 56.5767 19.5099C58.9245 19.5099 61.1414 19.87 63.2111 20.5984V18.6261C63.2111 17.0712 62.7285 15.8927 61.7632 15.0989C60.7979 14.3051 59.3744 13.9041 57.5093 13.9041C56.4049 13.9041 55.1778 14.0841 53.828 14.4524C52.4782 14.8125 50.9567 15.3772 49.2633 16.1382L46.7191 10.8434C48.8624 9.91047 50.8994 9.19849 52.8382 8.71565C54.777 8.23281 56.7076 7.9873 58.6464 7.9873C62.344 7.9873 65.199 8.86296 67.2032 10.6061C69.2075 12.3492 70.2137 14.8207 70.2137 17.9959V35.5254H63.2111V33.6022C62.1067 34.4288 60.9124 35.0344 59.6362 35.419C58.3601 35.7954 56.9366 35.9919 55.3823 35.9919V36ZM52.3228 27.5463C52.3228 28.5856 52.7727 29.404 53.6726 30.0096C54.5725 30.6152 55.7668 30.918 57.2475 30.918C58.4255 30.918 59.5053 30.7788 60.487 30.5006C61.4687 30.2224 62.3767 29.7723 63.2111 29.1503V25.2058C62.344 24.8293 61.4441 24.5593 60.5115 24.4038C59.579 24.2483 58.5727 24.1746 57.5011 24.1746C55.8732 24.1746 54.6052 24.4692 53.689 25.0585C52.7727 25.6477 52.3146 26.4742 52.3146 27.5463H52.3228Z" fill="white"/>
<path d="M93.7163 25.1074L90.3296 29.322C89.8633 29.9031 89.8469 30.7296 90.2887 31.3352L93.3973 35.5334H101.643L93.7163 25.1074Z" fill="white"/>
<path d="M80.9303 35.5335L101.038 8.51099H93.0784L87.1721 16.5474L81.2085 8.51099H72.9625L83.0736 21.7849L72.7007 35.5335H80.9303Z" fill="white"/>
<path d="M14.6186 35.9509C11.6491 35.9509 9.39127 35.2717 7.85333 33.905C6.31538 32.5383 5.54641 30.5579 5.54641 27.9636V14.4278H0V8.51102H5.54641V1.61218L12.598 0V8.51102H20.3777V14.4278H12.598V26.466C12.598 27.7099 12.8844 28.602 13.457 29.1339C14.0296 29.674 14.9868 29.9359 16.3366 29.9359C17.0646 29.9359 17.7109 29.895 18.2835 29.805C18.8562 29.7149 19.4861 29.5676 20.1732 29.363V35.1734C19.4452 35.419 18.5453 35.6072 17.4737 35.7463C16.402 35.8854 15.4531 35.9509 14.6186 35.9509Z" fill="white"/>
</g>
<defs>
<clipPath id="clip0_227_835">
<rect width="170" height="36" fill="white"/>
</clipPath>
</defs>
</svg>
