<svg width="107" height="16" viewBox="0 0 107 16" fill="none" xmlns="http://www.w3.org/2000/svg">
<g clip-path="url(#clip0_198_2462)">
<path d="M1.48793 10.1813C1.48793 10.8601 1.6732 11.5388 2.04375 12.2121C2.18271 12.4694 2.38535 12.7485 2.65748 13.0551C2.88328 13.2905 3.06856 13.4656 3.22488 13.5806C4.12231 14.2538 5.12396 14.5878 6.22982 14.5878H6.2414C7.272 14.5878 8.21575 14.2867 9.08423 13.69C9.24055 13.586 9.45478 13.3999 9.73269 13.1317C9.9006 12.9401 9.99324 12.8416 9.99903 12.8361C10.2248 12.546 10.3812 12.2997 10.4738 12.1026C10.8038 11.4567 10.9717 10.8163 10.9717 10.1813V10.0281C10.9717 9.27266 10.7459 8.52822 10.3001 7.78926C9.72111 6.89702 8.89316 6.26206 7.82783 5.87889C7.30095 5.70373 6.76828 5.61615 6.22403 5.61615C5.21081 5.61615 4.27864 5.90079 3.42753 6.47006C3.28857 6.56312 3.08014 6.73828 2.80222 6.99555C2.49536 7.31851 2.26377 7.60315 2.11902 7.84947L2.08428 7.91515H2.0727V5.7092C2.32167 5.50667 2.54168 5.33698 2.73275 5.21656C3.81545 4.54328 4.96763 4.20937 6.1893 4.20937H6.24719C7.50938 4.20937 8.69052 4.5597 9.7848 5.26035C9.99324 5.39719 10.248 5.59425 10.5491 5.85152C10.8443 6.13616 11.0528 6.36059 11.1744 6.51933C11.406 6.80397 11.597 7.08861 11.7418 7.37325C12.2165 8.23811 12.4481 9.13034 12.4481 10.0609V10.1266C12.4481 11.2104 12.1355 12.2395 11.5102 13.2083C10.7691 14.3195 9.74427 15.1187 8.44734 15.6004C7.73519 15.8577 6.99988 15.9836 6.2414 15.9836H6.18351C5.03132 15.9836 3.93704 15.6825 2.90065 15.0859C2.65169 14.9381 2.36798 14.741 2.05533 14.4837C1.75426 14.2155 1.54003 14.0021 1.41845 13.8488C1.19264 13.586 1.01895 13.3561 0.897359 13.1591C0.295214 12.2012 -0.00585938 11.1885 -0.00585938 10.1211V0H1.48793V10.1813Z" fill="#AAACB2"/>
<path d="M24.4265 4.23712H25.9377C25.9377 4.23712 25.9493 4.23712 25.9493 4.24807V5.63295C25.9493 5.63295 25.9493 5.6439 25.9377 5.6439H24.4613C23.7491 5.6439 23.1064 5.86832 22.5332 6.3117C22.2959 6.53066 22.1569 6.6675 22.1164 6.72771C21.9253 6.97404 21.7979 7.18752 21.7342 7.36268C21.5779 7.68016 21.5026 8.08522 21.5026 8.58334V15.7267C21.5026 15.7267 21.5026 15.7376 21.4911 15.7376H20.0262C20.0262 15.7376 20.0146 15.7376 20.0146 15.7267V8.41913C20.0146 7.53237 20.2984 6.71129 20.8715 5.95043C20.9816 5.80264 21.1726 5.6001 21.4505 5.33736C21.9137 4.94872 22.3943 4.66955 22.8922 4.50534C23.3959 4.33018 23.9054 4.2426 24.4265 4.2426V4.23712Z" fill="#AAACB2"/>
<path d="M34.7449 0C35.1386 0 35.4744 0.158741 35.7408 0.470749C35.9029 0.684229 35.9839 0.914129 35.9839 1.16045V1.1714C35.9839 1.58194 35.7813 1.91584 35.3818 2.16764C35.1733 2.27711 34.9591 2.33185 34.7449 2.33185C34.328 2.33185 33.9806 2.15669 33.7027 1.80636C33.5695 1.60383 33.5059 1.39035 33.5059 1.1714V1.16045C33.5059 0.766336 33.6911 0.437906 34.0617 0.18611C34.2759 0.0602121 34.5075 0 34.7449 0V0ZM35.486 4.49949V15.7263C35.486 15.7263 35.486 15.7373 35.4744 15.7373H34.0096C34.0096 15.7373 33.998 15.7373 33.998 15.7263V4.49949H35.486Z" fill="#AAACB2"/>
<path d="M49.7343 4.2371H49.7922C50.9849 4.2371 52.1081 4.56006 53.1677 5.2005C53.3993 5.33734 53.6714 5.54535 53.9898 5.81356C54.3314 6.12557 54.5572 6.36095 54.6615 6.50327C54.8931 6.79338 55.0783 7.0616 55.2173 7.30245V7.31339C55.2173 7.31339 54.7657 7.54877 53.9261 7.97025H53.903C53.793 7.76772 53.6424 7.54877 53.4514 7.32434C53.3529 7.1875 53.1561 6.99044 52.8724 6.74411C51.9518 6.00515 50.9096 5.6384 49.7517 5.6384H49.7285C48.6747 5.6384 47.702 5.95588 46.8162 6.59085C46.6714 6.70032 46.4862 6.86454 46.2604 7.08349C45.9767 7.39003 45.7798 7.64182 45.6814 7.82793C45.2298 8.53953 45.0098 9.30039 45.0098 10.1105C45.0098 11.1724 45.3803 12.1358 46.1214 12.9952C46.382 13.2744 46.6078 13.4769 46.793 13.6083C47.6847 14.2597 48.669 14.5826 49.7517 14.5826H49.7632C50.8749 14.5826 51.8939 14.2323 52.8029 13.5317C53.1271 13.2525 53.3472 13.0335 53.463 12.8748C53.6482 12.6613 53.793 12.4533 53.903 12.2508H53.9261C54.7599 12.6777 55.1883 12.8967 55.2173 12.9076C55.1246 13.0883 54.9567 13.3456 54.7078 13.674C54.563 13.8437 54.4009 14.0134 54.233 14.1885C53.8509 14.5388 53.5903 14.7578 53.4456 14.8344C53.1387 15.0589 52.7971 15.2559 52.4266 15.4147C51.5697 15.7924 50.6896 15.9839 49.7922 15.9839H49.7343C48.4721 15.9839 47.2968 15.6336 46.2083 14.933C46.0056 14.8071 45.7567 14.6155 45.4556 14.3527C45.1719 14.0845 44.9634 13.8656 44.8418 13.7068C44.6103 13.4167 44.4308 13.1594 44.3092 12.9514C43.7997 12.0537 43.5449 11.1122 43.5449 10.1324V10.0777C43.5449 9.00481 43.8576 7.97573 44.4829 7.00686C45.2414 5.87378 46.2951 5.06365 47.6499 4.57101C48.3447 4.34658 49.0453 4.23163 49.7401 4.23163L49.7343 4.2371Z" fill="#AAACB2"/>
<path d="M62.785 0H64.2499C64.2499 0 64.2614 0 64.2614 0.0109477V9.21793H64.273C65.2573 8.50633 66.8437 7.35135 69.0323 5.75299C70.0513 5.00855 70.6245 4.58707 70.7519 4.49949H73.1662V4.51044C73.1026 4.5597 71.8172 5.49572 69.3102 7.31851C66.9479 9.04277 65.5178 10.0883 65.0141 10.4441C64.9967 10.4605 64.7478 10.6466 64.2614 11.0024V15.7208C64.2614 15.7208 64.2614 15.7318 64.2499 15.7318H62.785C62.785 15.7318 62.7734 15.7318 62.7734 15.7208V0.0109477C62.7734 0.0109477 62.7734 0 62.785 0ZM67.3127 9.49162C67.3648 9.53541 68.3954 10.6302 70.3987 12.7814L73.1605 15.7208V15.7318H71.1977C71.0819 15.6168 70.1555 14.6261 68.4128 12.7704L66.1374 10.3455C66.1663 10.3182 66.56 10.0335 67.3127 9.49162Z" fill="#AAACB2"/>
<path d="M82.2105 0H83.6869V4.46664H85.916C85.916 4.46664 85.9276 4.46664 85.9276 4.47759V5.87342C85.9276 5.87342 85.9276 5.88436 85.916 5.88436H83.6869V13.1591C83.6869 13.701 83.9417 14.1225 84.4512 14.4235C84.6886 14.533 84.8854 14.5878 85.0418 14.5878C85.0418 14.5932 85.1286 14.5987 85.3081 14.5987H86.6571C86.6571 14.5987 86.6687 14.5987 86.6687 14.6096V15.9945C86.6687 15.9945 86.6687 16.0055 86.6571 16.0055H85.1576C84.4744 16.0055 83.8491 15.792 83.2759 15.3596C82.5579 14.7684 82.1989 14.0404 82.1989 13.1755V5.87342H80.7225C80.7225 5.87342 80.7109 5.87342 80.7109 5.86247V4.47759C80.7109 4.47759 80.7109 4.46664 80.7225 4.46664H82.1989V0.0109477C82.1989 0.0109477 82.1989 0 82.2105 0Z" fill="#AAACB2"/>
<path d="M100.408 4.23712H100.466C101.728 4.23712 102.904 4.58745 103.992 5.2881C104.206 5.42494 104.455 5.61653 104.722 5.84643C105 6.1037 105.191 6.29528 105.289 6.42665C105.503 6.6894 105.677 6.9193 105.799 7.11636C106.372 8.05785 106.655 9.05409 106.655 10.0886V10.1434C106.655 11.2163 106.349 12.2453 105.729 13.2142C104.976 14.3254 103.952 15.13 102.643 15.6172C101.925 15.8635 101.196 15.9894 100.46 15.9894H100.402C99.256 15.9894 98.1617 15.6884 97.1195 15.0917C96.8706 14.9439 96.5869 14.7414 96.2626 14.4787C95.9789 14.2159 95.7879 14.0243 95.6952 13.9094C95.4868 13.674 95.3189 13.466 95.1973 13.2854C94.5488 12.3001 94.2246 11.2491 94.2246 10.1379V10.0832C94.2246 8.96651 94.5604 7.90459 95.232 6.90288C95.3942 6.66203 95.6026 6.41023 95.8573 6.14749C96.0947 5.90664 96.2916 5.726 96.4363 5.61105C96.7664 5.36473 97.0501 5.17862 97.2701 5.06367C98.2601 4.51629 99.3023 4.2426 100.402 4.2426L100.408 4.23712ZM95.7068 10.1215C95.7068 11.2108 96.1005 12.1961 96.8764 13.0719C97.1774 13.3729 97.3627 13.5372 97.4206 13.5645C98.3122 14.2542 99.3139 14.5936 100.437 14.5936H100.449C101.531 14.5936 102.521 14.2597 103.419 13.5974C103.749 13.3292 103.998 13.0938 104.148 12.9077C104.386 12.6176 104.577 12.3274 104.716 12.0428C105.017 11.4133 105.167 10.8002 105.167 10.1981V10.0449C105.167 9.30041 104.947 8.56145 104.507 7.82795C103.94 6.94119 103.135 6.30623 102.081 5.91759C101.549 5.73695 100.999 5.6439 100.431 5.6439C99.2386 5.6439 98.1733 6.03254 97.2411 6.80435C96.9574 7.06709 96.7606 7.26962 96.6621 7.40647C96.0195 8.22754 95.701 9.13072 95.701 10.116L95.7068 10.1215Z" fill="#AAACB2"/>
</g>
<defs>
<clipPath id="clip0_198_2462">
<rect width="106.667" height="16" fill="white"/>
</clipPath>
</defs>
</svg>
