<svg width="81" height="81" viewBox="0 0 81 81" fill="none" xmlns="http://www.w3.org/2000/svg">
<mask id="mask0_227_482" style="mask-type:alpha" maskUnits="userSpaceOnUse" x="0" y="0" width="81" height="81">
<rect width="81" height="81" fill="#009DFF"/>
</mask>
<g mask="url(#mask0_227_482)">
<path d="M29.025 75.9375L22.6125 65.1375L10.4625 62.4375L11.6438 49.95L3.375 40.5L11.6438 31.05L10.4625 18.5625L22.6125 15.8625L29.025 5.0625L40.5 9.95625L51.975 5.0625L58.3875 15.8625L70.5375 18.5625L69.3563 31.05L77.625 40.5L69.3563 49.95L70.5375 62.4375L58.3875 65.1375L51.975 75.9375L40.5 71.0438L29.025 75.9375ZM31.8937 67.3313L40.5 63.6188L49.275 67.3313L54 59.2313L63.2812 57.0375L62.4375 47.5875L68.6813 40.5L62.4375 33.2438L63.2812 23.7938L54 21.7688L49.1063 13.6687L40.5 17.3813L31.725 13.6687L27 21.7688L17.7188 23.7938L18.5625 33.2438L12.3188 40.5L18.5625 47.5875L17.7188 57.2062L27 59.2313L31.8937 67.3313ZM36.9562 52.4813L56.025 33.4125L51.3 28.5188L36.9562 42.8625L29.7 35.775L24.975 40.5L36.9562 52.4813Z" fill="#009DFF"/>
</g>
</svg>
