<svg width="88" height="88" viewBox="0 0 88 88" fill="none" xmlns="http://www.w3.org/2000/svg">
<mask id="mask0_227_475" style="mask-type:alpha" maskUnits="userSpaceOnUse" x="0" y="0" width="88" height="88">
<rect width="88" height="88" fill="#009DFF"/>
</mask>
<g mask="url(#mask0_227_475)">
<path d="M44.0003 80.6667C35.5059 78.5278 28.4934 73.6542 22.9628 66.0459C17.4323 58.4375 14.667 49.9889 14.667 40.7V18.3334L44.0003 7.33337L73.3337 18.3334V40.7C73.3337 49.9889 70.5684 58.4375 65.0378 66.0459C59.5073 73.6542 52.4948 78.5278 44.0003 80.6667ZM44.0003 72.9667C49.9281 71.1334 54.8781 67.5125 58.8503 62.1042C62.8225 56.6959 65.1448 50.6612 65.817 44H44.0003V15.125L22.0003 23.375V42.35C22.0003 42.7778 22.0614 43.3278 22.1837 44H44.0003V72.9667Z" fill="#009DFF"/>
</g>
</svg>
