<svg version="1.1" id="Layer_1" xmlns="http://www.w3.org/2000/svg" xmlns:xlink="http://www.w3.org/1999/xlink" x="0px" y="0px"
	 width="100%" viewBox="0 0 268 99" enable-background="new 0 0 268 99" xml:space="preserve">
<path fill="#FDFDFD" opacity="1.000000" stroke="none" 
	d="
M185.000000,100.000000 
	C123.333359,100.000000 62.166710,100.000000 1.000049,100.000000 
	C1.000033,67.000031 1.000033,34.000069 1.000016,1.000076 
	C90.333275,1.000051 179.666550,1.000051 268.999878,1.000025 
	C268.999908,33.999924 268.999908,66.999847 268.999939,99.999886 
	C241.166672,100.000000 213.333328,100.000000 185.000000,100.000000 
M38.292255,43.325108 
	C34.512249,44.045132 32.649704,48.173523 33.679905,55.234100 
	C37.823418,51.467537 37.847973,46.905964 39.486591,43.177151 
	C40.549404,44.183186 41.612213,45.189217 42.792439,46.306393 
	C47.118004,43.322342 42.792873,42.121010 42.467850,39.667511 
	C43.818970,39.430641 45.241657,39.388435 46.508614,38.922642 
	C51.543633,37.071529 56.434227,37.152958 61.044380,39.987278 
	C61.626472,40.345142 61.484329,41.881008 61.064114,43.197895 
	C61.117153,45.302486 61.478931,46.910130 64.556526,44.840218 
	C65.022812,44.544914 65.489090,44.249607 66.657349,44.304756 
	C69.615005,50.478069 70.028839,56.697132 66.510315,63.794716 
	C64.747925,63.399799 62.985531,63.004883 60.398529,62.425190 
	C61.674198,65.296410 62.297783,66.699951 62.162624,67.915810 
	C59.542389,70.403381 53.801044,68.104340 52.326740,74.399788 
	C57.265003,73.272423 62.090454,74.619255 64.508713,68.547058 
	C65.853905,69.700401 67.199097,70.853745 68.469994,71.943398 
	C73.125130,69.150841 68.139915,67.893669 68.490692,65.767456 
	C73.461685,59.883377 74.393051,51.226505 70.516670,44.775829 
	C69.863167,43.688343 68.275902,43.161983 67.655441,41.830147 
	C68.735985,40.666626 69.816528,39.503105 70.981728,38.248425 
	C70.071655,37.286236 69.414467,36.591415 68.677452,35.812195 
	C67.273918,36.965767 66.057564,37.965500 64.854393,38.954391 
	C60.149471,33.673813 51.803532,32.638561 44.499172,35.726109 
	C41.995052,36.784595 41.673264,38.210957 41.263691,39.830303 
	C37.318523,35.812229 37.318523,35.812229 35.085964,38.514080 
	C36.389244,39.992271 37.696770,41.475281 38.292255,43.325108 
M162.552765,47.510124 
	C162.552765,43.054852 162.552765,38.599575 162.552765,34.142921 
	C160.385666,34.142921 158.672424,34.142921 156.651276,34.142921 
	C156.651276,37.396214 156.651276,40.303020 156.651276,43.330681 
	C148.897446,39.882153 143.799973,40.660450 140.621796,45.589493 
	C137.280075,50.772186 138.063461,58.727032 142.291702,62.546440 
	C146.797409,66.616486 151.709091,66.267082 156.750793,62.226746 
	C158.610321,63.414295 160.130341,64.385025 162.566833,65.941040 
	C162.566833,59.102104 162.566833,53.803154 162.552765,47.510124 
M226.409821,54.584179 
	C228.829498,54.584179 231.249191,54.584179 233.643295,54.584179 
	C233.809097,46.159843 230.138779,41.372131 223.740738,41.014042 
	C216.677200,40.618706 211.582748,45.074329 211.023483,52.136539 
	C210.483047,58.961117 214.803894,64.601097 221.128754,65.326912 
	C227.539810,66.062622 231.833786,63.171970 232.640137,56.729336 
	C230.375809,57.660007 228.410721,58.205456 226.721588,59.213383 
	C222.435730,61.770798 218.508759,60.170013 216.992294,54.584766 
	C219.907867,54.584766 222.685013,54.584766 226.409821,54.584179 
M189.696030,58.402370 
	C187.604889,58.673431 185.219589,58.393433 183.479568,59.322262 
	C178.865448,61.785313 174.532410,59.940166 174.034012,54.532684 
	C179.501144,54.532684 184.942291,54.532684 190.389267,54.532684 
	C190.067719,46.160297 186.926270,41.743229 181.047745,41.056400 
	C174.894867,40.337513 169.661545,43.803711 168.200714,49.565365 
	C166.624573,55.781864 169.669373,62.790627 174.790787,64.734909 
	C180.639786,66.955414 186.255280,64.796280 189.696030,58.402370 
M239.265762,63.327766 
	C243.687973,66.284119 247.865295,65.805252 250.790466,63.138805 
	C253.121353,64.011108 254.767075,64.626999 256.980316,65.455276 
	C256.980316,59.347656 257.188324,54.198940 256.914398,49.075996 
	C256.695984,44.992168 254.508591,42.197773 250.110077,41.869934 
	C246.681229,41.614376 243.239471,41.531879 239.691238,41.367271 
	C239.470749,42.570927 239.279617,43.187859 239.263443,43.809338 
	C239.242645,44.608982 239.362152,45.412277 239.418579,46.177891 
	C250.250732,47.424126 250.250732,47.424126 250.662460,50.098022 
	C237.221146,51.499222 234.098724,54.800011 239.265762,63.327766 
M101.720222,59.812973 
	C104.753052,64.646675 108.592804,66.195724 114.954887,64.915031 
	C118.501915,64.201004 121.211800,62.256054 121.326019,58.340118 
	C121.437561,54.515739 119.161781,52.185562 115.540886,51.245892 
	C113.615654,50.746262 111.566444,50.659019 109.704628,50.009132 
	C108.830658,49.704063 108.267326,48.509083 107.563232,47.717396 
	C108.408653,47.069950 109.244499,45.904163 110.101578,45.888329 
	C111.648674,45.859741 113.215691,46.491283 114.761070,46.897747 
	C116.571739,47.373985 118.368202,47.904255 120.763397,48.577698 
	C118.735046,42.506012 114.429558,39.954643 109.141083,41.191975 
	C105.495445,42.044933 101.950104,43.526718 102.043556,48.212463 
	C102.134003,52.747543 105.194283,54.458332 109.183441,55.077366 
	C110.169136,55.230324 111.283524,55.153015 112.109291,55.602814 
	C113.489822,56.354794 114.685600,57.445938 115.959152,58.394314 
	C114.337952,59.239830 112.780289,60.535656 111.073769,60.776443 
	C109.887436,60.943832 108.551155,59.336391 107.183548,59.106354 
	C105.355713,58.798901 103.432678,59.057480 101.720222,59.812973 
M77.897522,69.200447 
	C77.739174,69.493347 77.632011,69.832535 77.415062,70.072441 
	C70.552010,77.661598 64.065216,86.154396 51.769402,80.941559 
	C51.678188,80.902885 51.502354,81.063812 51.249989,81.189194 
	C51.249989,84.056694 51.249989,86.978455 51.249989,90.302643 
	C54.383068,88.806107 57.227161,87.584473 59.941765,86.122414 
	C65.564346,83.094154 71.918083,80.813614 76.505684,76.621765 
	C82.806114,70.864845 86.494766,63.203922 83.517220,53.681488 
	C81.760132,58.634712 80.003044,63.587933 77.897522,69.200447 
M20.627464,50.978184 
	C21.751745,50.193302 23.382946,49.654369 23.905437,48.577499 
	C25.484482,45.323032 26.140802,41.548656 28.043564,38.537243 
	C33.377266,30.095848 41.045345,25.236744 51.626568,24.769114 
	C51.740616,23.886765 51.903122,22.629505 52.065559,21.372755 
	C40.217880,19.818298 22.033714,31.539738 20.627464,50.978184 
M207.202896,46.561050 
	C207.945633,45.126247 208.688370,43.691444 209.431091,42.256641 
	C208.970825,41.840977 208.510559,41.425308 208.050293,41.009644 
	C205.328217,42.360775 202.606140,43.711906 200.038101,44.986576 
	C200.657471,41.027000 198.166763,41.531292 195.451584,42.127445 
	C195.451584,49.871292 195.451584,57.241459 195.451584,64.706558 
	C197.382980,64.706558 198.980835,64.706558 201.087708,64.706558 
	C201.087708,60.949070 201.128296,57.346691 201.076569,53.745636 
	C201.022308,49.968090 202.394867,47.320786 207.202896,46.561050 
M24.505297,61.719753 
	C23.626938,59.739788 24.851389,55.644325 20.201305,57.391235 
	C22.653091,74.120789 33.969292,85.425323 50.062851,86.245781 
	C49.367996,84.871956 48.426426,83.360870 47.172367,83.028381 
	C36.059277,80.081932 28.396687,73.506775 24.505297,61.719753 
M127.239891,61.148586 
	C126.853638,66.437340 130.150650,64.796623 132.858124,64.522469 
	C132.858124,56.774700 132.858124,49.389305 132.858124,42.086868 
	C129.806595,42.086868 127.059708,42.086868 125.287903,42.086868 
	C125.952446,48.286232 126.592224,54.254555 127.239891,61.148586 
M49.642738,49.703136 
	C46.550442,54.057079 47.273159,58.358688 51.466442,58.932888 
	C53.245346,59.176476 55.965244,58.306030 56.948891,56.974911 
	C57.926392,55.652107 58.085632,52.113583 57.134792,51.330658 
	C55.441910,49.936733 52.641460,49.887913 49.642738,49.703136 
M39.909519,64.335144 
	C37.989521,65.859978 36.069527,67.384811 34.109222,68.941650 
	C37.746296,72.255821 39.906670,70.933517 44.349781,62.471573 
	C43.042713,62.927322 41.735649,63.383068 39.909519,64.335144 
M126.099770,35.491932 
	C126.590103,38.641415 128.395599,39.996338 131.207626,38.340538 
	C132.101669,37.814098 132.792831,34.996700 132.238373,34.312862 
	C130.397736,32.042744 128.096832,32.009769 126.099770,35.491932 
M20.621140,52.051304 
	C17.128691,52.416557 17.128691,52.416557 17.628698,55.665035 
	C25.748631,56.246353 25.748631,56.246353 25.900148,52.266251 
	C24.449129,52.192642 22.992823,52.118763 20.621140,52.051304 
z"/>
<path fill="#111111" opacity="1.000000" stroke="none" 
	d="
M162.559799,48.007164 
	C162.566833,53.803154 162.566833,59.102104 162.566833,65.941040 
	C160.130341,64.385025 158.610321,63.414295 156.750793,62.226746 
	C151.709091,66.267082 146.797409,66.616486 142.291702,62.546440 
	C138.063461,58.727032 137.280075,50.772186 140.621796,45.589493 
	C143.799973,40.660450 148.897446,39.882153 156.651276,43.330681 
	C156.651276,40.303020 156.651276,37.396214 156.651276,34.142921 
	C158.672424,34.142921 160.385666,34.142921 162.552765,34.142921 
	C162.552765,38.599575 162.552765,43.054852 162.559799,48.007164 
M144.501343,54.984299 
	C145.644623,59.249207 148.521378,61.092239 152.666321,59.900482 
	C156.446304,58.813652 157.245895,55.516388 156.937149,51.962097 
	C156.611816,48.216553 154.205658,46.244240 150.738785,46.133072 
	C145.268723,45.957676 144.675217,50.104198 144.501343,54.984299 
z"/>
<path fill="#151515" opacity="1.000000" stroke="none" 
	d="
M225.935989,54.584473 
	C222.685013,54.584766 219.907867,54.584766 216.992294,54.584766 
	C218.508759,60.170013 222.435730,61.770798 226.721588,59.213383 
	C228.410721,58.205456 230.375809,57.660007 232.640137,56.729336 
	C231.833786,63.171970 227.539810,66.062622 221.128754,65.326912 
	C214.803894,64.601097 210.483047,58.961117 211.023483,52.136539 
	C211.582748,45.074329 216.677200,40.618706 223.740738,41.014042 
	C230.138779,41.372131 233.809097,46.159843 233.643295,54.584179 
	C231.249191,54.584179 228.829498,54.584179 225.935989,54.584473 
M217.107590,49.985001 
	C220.627518,50.432781 224.147461,50.880562 228.054062,51.377533 
	C225.439194,44.700249 221.561951,44.183090 217.107590,49.985001 
z"/>
<path fill="#121212" opacity="1.000000" stroke="none" 
	d="
M189.591660,58.743263 
	C186.255280,64.796280 180.639786,66.955414 174.790787,64.734909 
	C169.669373,62.790627 166.624573,55.781864 168.200714,49.565365 
	C169.661545,43.803711 174.894867,40.337513 181.047745,41.056400 
	C186.926270,41.743229 190.067719,46.160297 190.389267,54.532684 
	C184.942291,54.532684 179.501144,54.532684 174.034012,54.532684 
	C174.532410,59.940166 178.865448,61.785313 183.479568,59.322262 
	C185.219589,58.393433 187.604889,58.673431 189.591660,58.743263 
M177.849823,46.010399 
	C176.378174,47.334999 174.906509,48.659599 172.762573,50.589291 
	C177.620682,50.589291 180.963333,50.589291 184.305984,50.589291 
	C184.512070,50.030632 184.718155,49.471977 184.924240,48.913319 
	C182.841370,47.914986 180.758484,46.916649 177.849823,46.010399 
z"/>
<path fill="#121212" opacity="1.000000" stroke="none" 
	d="
M238.967148,63.052444 
	C234.098724,54.800011 237.221146,51.499222 250.662460,50.098022 
	C250.250732,47.424126 250.250732,47.424126 239.418579,46.177891 
	C239.362152,45.412277 239.242645,44.608982 239.263443,43.809338 
	C239.279617,43.187859 239.470749,42.570927 239.691238,41.367271 
	C243.239471,41.531879 246.681229,41.614376 250.110077,41.869934 
	C254.508591,42.197773 256.695984,44.992168 256.914398,49.075996 
	C257.188324,54.198940 256.980316,59.347656 256.980316,65.455276 
	C254.767075,64.626999 253.121353,64.011108 250.790466,63.138805 
	C247.865295,65.805252 243.687973,66.284119 238.967148,63.052444 
M251.054810,57.902740 
	C251.054810,56.674076 251.054810,55.445415 251.054810,54.096939 
	C249.120621,54.096939 247.248398,53.602615 245.910583,54.236362 
	C244.580383,54.866520 243.787231,56.630379 242.758560,57.897087 
	C244.197739,58.900261 245.534744,60.410328 247.112030,60.728184 
	C248.161331,60.939648 249.553711,59.448795 251.054810,57.902740 
z"/>
<path fill="#101010" opacity="1.000000" stroke="none" 
	d="
M101.635376,59.442974 
	C103.432678,59.057480 105.355713,58.798901 107.183548,59.106354 
	C108.551155,59.336391 109.887436,60.943832 111.073769,60.776443 
	C112.780289,60.535656 114.337952,59.239830 115.959152,58.394318 
	C114.685600,57.445938 113.489822,56.354794 112.109291,55.602814 
	C111.283524,55.153015 110.169136,55.230324 109.183441,55.077366 
	C105.194283,54.458332 102.134003,52.747543 102.043556,48.212463 
	C101.950104,43.526718 105.495445,42.044933 109.141083,41.191975 
	C114.429558,39.954643 118.735046,42.506012 120.763397,48.577698 
	C118.368202,47.904255 116.571739,47.373985 114.761070,46.897747 
	C113.215691,46.491283 111.648674,45.859741 110.101578,45.888329 
	C109.244499,45.904163 108.408653,47.069950 107.563232,47.717392 
	C108.267326,48.509083 108.830658,49.704063 109.704628,50.009132 
	C111.566444,50.659019 113.615654,50.746262 115.540886,51.245892 
	C119.161781,52.185562 121.437561,54.515739 121.326019,58.340118 
	C121.211800,62.256054 118.501915,64.201004 114.954887,64.915031 
	C108.592804,66.195724 104.753052,64.646675 101.635376,59.442974 
z"/>
<path fill="#121212" opacity="1.000000" stroke="none" 
	d="
M78.071739,68.870804 
	C80.003044,63.587933 81.760132,58.634712 83.517220,53.681488 
	C86.494766,63.203922 82.806114,70.864845 76.505684,76.621765 
	C71.918083,80.813614 65.564346,83.094154 59.941765,86.122414 
	C57.227161,87.584473 54.383068,88.806107 51.249989,90.302643 
	C51.249989,86.978455 51.249989,84.056694 51.249989,81.189194 
	C51.502354,81.063812 51.678188,80.902885 51.769402,80.941559 
	C64.065216,86.154396 70.552010,77.661598 77.415062,70.072441 
	C77.632011,69.832535 77.739174,69.493347 78.071739,68.870804 
z"/>
<path fill="#141414" opacity="1.000000" stroke="none" 
	d="
M20.336504,50.685097 
	C22.033714,31.539738 40.217880,19.818298 52.065559,21.372755 
	C51.903122,22.629505 51.740616,23.886765 51.626568,24.769114 
	C41.045345,25.236744 33.377266,30.095848 28.043564,38.537243 
	C26.140802,41.548656 25.484482,45.323032 23.905437,48.577499 
	C23.382946,49.654369 21.751745,50.193302 20.336504,50.685097 
z"/>
<path fill="#131313" opacity="1.000000" stroke="none" 
	d="
M206.803757,46.584953 
	C202.394867,47.320786 201.022308,49.968090 201.076569,53.745636 
	C201.128296,57.346691 201.087708,60.949070 201.087708,64.706558 
	C198.980835,64.706558 197.382980,64.706558 195.451584,64.706558 
	C195.451584,57.241459 195.451584,49.871292 195.451584,42.127445 
	C198.166763,41.531292 200.657471,41.027000 200.038101,44.986576 
	C202.606140,43.711906 205.328217,42.360775 208.050293,41.009644 
	C208.510559,41.425308 208.970825,41.840977 209.431091,42.256641 
	C208.688370,43.691444 207.945633,45.126247 206.803757,46.584953 
z"/>
<path fill="#131313" opacity="1.000000" stroke="none" 
	d="
M24.641113,62.091125 
	C28.396687,73.506775 36.059277,80.081932 47.172367,83.028381 
	C48.426426,83.360870 49.367996,84.871956 50.062851,86.245781 
	C33.969292,85.425323 22.653091,74.120789 20.201305,57.391235 
	C24.851389,55.644325 23.626938,59.739788 24.641113,62.091125 
z"/>
<path fill="#0F0F0F" opacity="1.000000" stroke="none" 
	d="
M127.235947,60.685734 
	C126.592224,54.254555 125.952446,48.286232 125.287903,42.086868 
	C127.059708,42.086868 129.806595,42.086868 132.858124,42.086868 
	C132.858124,49.389305 132.858124,56.774700 132.858124,64.522469 
	C130.150650,64.796623 126.853638,66.437340 127.235947,60.685734 
z"/>
<path fill="#171717" opacity="1.000000" stroke="none" 
	d="
M61.677731,42.871098 
	C61.484329,41.881008 61.626472,40.345142 61.044380,39.987278 
	C56.434227,37.152958 51.543633,37.071529 46.508614,38.922642 
	C45.241657,39.388435 43.818970,39.430641 42.186844,40.019112 
	C41.905834,40.370716 41.986481,40.383064 41.986481,40.383064 
	C41.673264,38.210957 41.995052,36.784595 44.499172,35.726109 
	C51.803532,32.638561 60.149471,33.673813 64.854393,38.954391 
	C66.057564,37.965500 67.273918,36.965767 68.677452,35.812195 
	C69.414467,36.591415 70.071655,37.286236 70.981728,38.248425 
	C69.816528,39.503105 68.735985,40.666626 67.436966,42.100887 
	C67.218491,42.371628 67.013878,42.404434 66.771622,42.651909 
	C66.326454,43.291145 66.123535,43.682903 65.928909,44.044460 
	C65.937210,44.014256 65.955376,43.954304 65.955376,43.954304 
	C65.489090,44.249607 65.022812,44.544914 64.222725,44.580978 
	C63.151859,43.838192 62.414795,43.354645 61.677731,42.871098 
z"/>
<path fill="#0D0D0D" opacity="1.000000" stroke="none" 
	d="
M49.973488,49.489830 
	C52.641460,49.887913 55.441910,49.936733 57.134792,51.330658 
	C58.085632,52.113583 57.926392,55.652107 56.948891,56.974911 
	C55.965244,58.306030 53.245346,59.176476 51.466442,58.932888 
	C47.273159,58.358688 46.550442,54.057079 49.973488,49.489830 
z"/>
<path fill="#161616" opacity="1.000000" stroke="none" 
	d="
M67.013878,42.404434 
	C67.013878,42.404434 67.218491,42.371628 67.169281,42.373993 
	C68.275902,43.161983 69.863167,43.688343 70.516670,44.775829 
	C74.393051,51.226505 73.461685,59.883377 67.963791,65.793732 
	C67.214417,65.675804 67.083878,65.472534 67.094818,64.863739 
	C67.109818,64.286530 67.075294,64.055779 67.006775,63.614574 
	C66.972763,63.404118 66.993164,62.978230 66.993164,62.978230 
	C70.028839,56.697132 69.615005,50.478069 66.306366,44.129532 
	C65.955376,43.954304 65.937210,44.014256 66.407478,44.002541 
	C66.923126,43.462032 66.968506,42.933231 67.013878,42.404434 
z"/>
<path fill="#141414" opacity="1.000000" stroke="none" 
	d="
M63.900330,69.072243 
	C62.090454,74.619255 57.265003,73.272423 52.326740,74.399788 
	C53.801044,68.104340 59.542389,70.403381 62.526909,67.974213 
	C62.891193,68.032616 62.912815,67.956223 63.015606,68.221191 
	C63.430305,68.687309 63.742214,68.888451 64.014069,69.099472 
	C63.974018,69.109360 63.900330,69.072243 63.900330,69.072243 
z"/>
<path fill="#0D0D0D" opacity="1.000000" stroke="none" 
	d="
M67.045280,65.210197 
	C67.083878,65.472534 67.214417,65.675804 67.613861,65.876564 
	C68.139915,67.893669 73.125130,69.150841 68.469994,71.943398 
	C67.199097,70.853745 65.853905,69.700401 64.204521,68.809647 
	C63.900330,69.072243 63.974018,69.109360 64.109856,68.686462 
	C63.801403,68.161118 63.357109,68.058670 62.912815,67.956223 
	C62.912815,67.956223 62.891193,68.032616 62.906281,68.068054 
	C62.297783,66.699951 61.674198,65.296410 60.398529,62.425190 
	C62.985531,63.004883 64.747925,63.399799 66.751740,63.386475 
	C66.993164,62.978230 66.972763,63.404118 66.648033,63.524498 
	C66.563965,64.166649 66.804626,64.688423 67.045280,65.210197 
z"/>
<path fill="#141414" opacity="1.000000" stroke="none" 
	d="
M38.850349,42.814281 
	C37.847973,46.905964 37.823418,51.467537 33.679905,55.234100 
	C32.649704,48.173523 34.512249,44.045132 38.603134,43.114609 
	C38.914017,42.904110 38.850349,42.814281 38.850349,42.814281 
z"/>
<path fill="#171717" opacity="1.000000" stroke="none" 
	d="
M40.169052,64.086975 
	C41.735649,63.383068 43.042713,62.927322 44.349781,62.471573 
	C39.906670,70.933517 37.746296,72.255821 34.109222,68.941650 
	C36.069527,67.384811 37.989521,65.859978 40.169052,64.086975 
z"/>
<path fill="#131313" opacity="1.000000" stroke="none" 
	d="
M41.625084,40.106682 
	C41.986481,40.383064 41.905834,40.370716 41.867058,40.350998 
	C42.792873,42.121010 47.118004,43.322342 42.792439,46.306393 
	C41.612213,45.189217 40.549404,44.183186 39.168472,42.995716 
	C38.850349,42.814281 38.914017,42.904110 38.959156,42.931198 
	C37.696770,41.475281 36.389244,39.992271 35.085964,38.514080 
	C37.318523,35.812229 37.318523,35.812229 41.625084,40.106682 
z"/>
<path fill="#151515" opacity="1.000000" stroke="none" 
	d="
M126.190025,35.105621 
	C128.096832,32.009769 130.397736,32.042744 132.238373,34.312862 
	C132.792831,34.996700 132.101669,37.814098 131.207626,38.340538 
	C128.395599,39.996338 126.590103,38.641415 126.190025,35.105621 
z"/>
<path fill="#1D1D1D" opacity="1.000000" stroke="none" 
	d="
M21.078829,52.048096 
	C22.992823,52.118763 24.449129,52.192642 25.900148,52.266251 
	C25.748631,56.246353 25.748631,56.246353 17.628698,55.665035 
	C17.128691,52.416557 17.128691,52.416557 21.078829,52.048096 
z"/>
<path fill="#101010" opacity="1.000000" stroke="none" 
	d="
M61.370922,43.034496 
	C62.414795,43.354645 63.151859,43.838192 63.949005,44.674629 
	C61.478931,46.910130 61.117153,45.302486 61.370922,43.034496 
z"/>
<path fill="#F4F4F4" opacity="1.000000" stroke="none" 
	d="
M144.416550,54.609795 
	C144.675217,50.104198 145.268723,45.957676 150.738785,46.133072 
	C154.205658,46.244240 156.611816,48.216553 156.937149,51.962097 
	C157.245895,55.516388 156.446304,58.813652 152.666321,59.900482 
	C148.521378,61.092239 145.644623,59.249207 144.416550,54.609795 
z"/>
<path fill="#F7F7F7" opacity="1.000000" stroke="none" 
	d="
M217.218781,49.585892 
	C221.561951,44.183090 225.439194,44.700249 228.054062,51.377533 
	C224.147461,50.880562 220.627518,50.432781 217.218781,49.585892 
z"/>
<path fill="#F0F0F0" opacity="1.000000" stroke="none" 
	d="
M178.262711,45.964355 
	C180.758484,46.916649 182.841370,47.914986 184.924240,48.913319 
	C184.718155,49.471977 184.512070,50.030632 184.305984,50.589291 
	C180.963333,50.589291 177.620682,50.589291 172.762573,50.589291 
	C174.906509,48.659599 176.378174,47.334999 178.262711,45.964355 
z"/>
<path fill="#F1F1F1" opacity="1.000000" stroke="none" 
	d="
M250.923676,58.311310 
	C249.553711,59.448795 248.161331,60.939648 247.112030,60.728184 
	C245.534744,60.410328 244.197739,58.900261 242.758560,57.897091 
	C243.787231,56.630379 244.580383,54.866520 245.910583,54.236362 
	C247.248398,53.602615 249.120621,54.096939 251.054810,54.096939 
	C251.054810,55.445415 251.054810,56.674076 250.923676,58.311310 
z"/>
<path fill="#FDFDFD" opacity="1.000000" stroke="none" 
	d="
M66.771622,42.651909 
	C66.968506,42.933231 66.923126,43.462032 66.399185,44.032745 
	C66.123535,43.682903 66.326454,43.291145 66.771622,42.651909 
z"/>
<path fill="#FDFDFD" opacity="1.000000" stroke="none" 
	d="
M67.094818,64.863739 
	C66.804626,64.688423 66.563965,64.166649 66.682037,63.734955 
	C67.075294,64.055779 67.109818,64.286530 67.094818,64.863739 
z"/>
<path fill="#FDFDFD" opacity="1.000000" stroke="none" 
	d="
M63.015606,68.221191 
	C63.357109,68.058670 63.801403,68.161118 64.149910,68.676575 
	C63.742214,68.888451 63.430305,68.687309 63.015606,68.221191 
z"/>
</svg>