<svg version="1.1" id="Layer_1" xmlns="http://www.w3.org/2000/svg" xmlns:xlink="http://www.w3.org/1999/xlink" x="0px" y="0px"
	 width="100%" viewBox="0 0 224 224" enable-background="new 0 0 224 224" xml:space="preserve">
<path fill="#010101" opacity="1.000000" stroke="none" 
	d="
M109.000000,225.000000 
	C72.666672,225.000000 36.833336,225.000000 1.000005,225.000000 
	C1.000003,150.333344 1.000003,75.666679 1.000002,1.000015 
	C75.666656,1.000010 150.333313,1.000010 224.999969,1.000005 
	C224.999985,75.666649 224.999985,150.333298 225.000000,224.999969 
	C186.500000,225.000000 148.000000,225.000000 109.000000,225.000000 
M78.533302,49.843269 
	C76.867653,49.843540 75.201996,49.842289 73.536346,49.844337 
	C65.227432,49.854557 64.838600,50.247650 64.838356,58.674282 
	C64.837685,81.661026 64.827507,104.647781 64.846725,127.634506 
	C64.851852,133.767914 66.054497,135.011505 72.065819,135.015854 
	C99.716469,135.035873 127.367149,135.033783 155.017792,135.009628 
	C161.000031,135.004410 162.276672,133.733994 162.285843,127.621277 
	C162.320786,104.301445 162.316803,80.981506 162.285492,57.661659 
	C162.276230,50.761414 161.346436,49.872757 154.478973,49.867874 
	C129.493454,49.850101 104.507942,49.850021 78.533302,49.843269 
M60.828289,159.670715 
	C60.828289,157.541260 60.828289,155.411819 60.828289,152.992249 
	C59.072075,152.992249 57.657490,152.992249 55.866581,152.992249 
	C55.866581,158.114456 55.777180,163.078140 55.899555,168.036591 
	C55.974995,171.093323 54.226513,171.543869 51.764698,171.652328 
	C49.057243,171.771591 47.738293,170.853271 47.811966,167.972733 
	C47.926933,163.477234 47.850109,158.976562 47.825325,154.478226 
	C47.822845,154.028442 47.618729,153.579773 47.468071,152.967560 
	C45.961262,152.967560 44.552959,152.967560 42.905216,152.967560 
	C42.905216,159.074661 42.853523,164.889282 42.924732,170.702408 
	C42.967007,174.153549 44.933571,175.830658 48.308060,175.845673 
	C54.947819,175.875229 61.587860,175.865387 68.227699,175.844376 
	C71.901993,175.832748 73.796677,173.808212 73.873741,170.276764 
	C73.996910,164.631958 73.906700,158.982483 73.906700,153.021347 
	C72.120049,153.021347 70.568085,153.021347 68.798210,153.021347 
	C68.798210,157.971191 68.682991,162.633652 68.840744,167.286850 
	C68.937851,170.151199 68.126022,171.556000 64.977882,171.651062 
	C61.532154,171.755081 60.597775,170.188202 60.800964,167.118805 
	C60.943726,164.962341 60.827763,162.788757 60.828289,159.670715 
M166.197983,160.755188 
	C165.725174,177.006470 166.248032,175.930054 178.682693,175.867157 
	C178.848770,175.866318 179.015167,175.858902 179.180786,175.846313 
	C182.328552,175.607010 184.065765,173.959167 184.095200,170.755600 
	C184.136429,166.268036 184.129715,161.779602 184.092575,157.291946 
	C184.065918,154.072006 182.266190,152.410400 179.170242,152.170074 
	C177.352570,152.028992 175.515472,152.118073 173.687393,152.135162 
	C167.642181,152.191635 166.267761,153.609085 166.197983,160.755188 
M161.997604,171.864990 
	C162.019440,168.208649 162.355362,164.517990 161.960663,160.907181 
	C161.661423,158.169571 160.892700,153.541092 159.528976,153.225266 
	C155.395889,152.268097 150.601807,152.108612 146.578735,153.329895 
	C142.799545,154.477127 142.968246,172.604935 146.348923,174.946640 
	C149.668182,177.245789 159.085648,175.897888 161.997604,171.864990 
M117.972450,169.096130 
	C117.968452,167.267914 117.873276,165.434586 117.974983,163.612274 
	C118.744240,149.830002 114.506172,152.308960 105.195656,152.190216 
	C101.913742,152.148346 99.969063,154.064972 99.955322,157.530106 
	C99.938194,161.851013 99.925690,166.172241 99.959190,170.492950 
	C99.985588,173.898804 101.740601,175.725266 105.154755,175.841370 
	C107.146942,175.909149 109.148476,175.770584 111.136147,175.888168 
	C115.373375,176.138824 117.809013,174.407867 117.972450,169.096130 
M82.161766,152.181030 
	C80.731163,154.114029 78.425034,155.896179 78.060310,158.012848 
	C77.392334,161.889343 77.887901,165.963501 77.865921,169.955063 
	C77.847916,173.224243 79.172127,175.345901 82.608818,175.846649 
	C90.190964,176.951431 94.668221,175.655746 95.739647,171.935349 
	C95.964134,171.155884 95.925499,170.290329 95.940804,169.463211 
	C95.968475,167.966766 95.944031,166.469376 95.943848,164.972382 
	C95.942261,152.068085 95.942421,152.068085 82.161766,152.181030 
M137.518494,152.686081 
	C136.691391,153.576019 135.334869,154.368149 135.148621,155.376450 
	C134.773956,157.404572 135.037170,159.550537 135.037170,161.570068 
	C132.002747,161.570068 129.619354,161.570068 126.813240,161.570068 
	C126.813240,158.441833 126.813240,155.688065 126.813240,152.585907 
	C124.959152,152.788284 123.581169,152.938705 122.367256,153.071198 
	C122.367256,160.888611 122.367256,168.282547 122.367256,175.644073 
	C123.993210,175.644073 125.261940,175.644073 127.181595,175.644073 
	C127.181595,172.393234 127.181595,169.364426 127.181595,166.394333 
	C130.095596,166.394333 132.353577,166.394333 135.065094,166.394333 
	C135.065094,169.586502 135.065094,172.494980 135.065094,175.530609 
	C136.902069,175.530609 138.275833,175.530609 139.976212,175.530609 
	C139.976212,168.426071 140.020828,161.636292 139.910141,154.849045 
	C139.898544,154.136993 138.970367,153.439896 137.518494,152.686081 
z"/>
<path fill="#FBFBFB" opacity="1.000000" stroke="none" 
	d="
M79.027863,49.843269 
	C104.507942,49.850021 129.493454,49.850101 154.478973,49.867874 
	C161.346436,49.872757 162.276230,50.761414 162.285492,57.661659 
	C162.316803,80.981506 162.320786,104.301445 162.285843,127.621277 
	C162.276672,133.733994 161.000031,135.004410 155.017792,135.009628 
	C127.367149,135.033783 99.716469,135.035873 72.065819,135.015854 
	C66.054497,135.011505 64.851852,133.767914 64.846725,127.634506 
	C64.827507,104.647781 64.837685,81.661026 64.838356,58.674282 
	C64.838600,50.247650 65.227432,49.854557 73.536346,49.844337 
	C75.201996,49.842289 76.867653,49.843540 79.027863,49.843269 
M126.894295,109.204712 
	C126.823608,112.090858 126.650520,115.721848 130.209442,116.021400 
	C134.441681,116.377625 138.809860,115.434914 143.070480,114.751556 
	C143.623459,114.662865 144.225906,112.767235 144.231964,111.705292 
	C144.307266,98.541664 144.438065,85.372841 144.065796,72.219185 
	C144.019714,70.590919 141.389236,68.591202 139.514008,67.602882 
	C138.067734,66.840660 135.927536,67.357079 134.096359,67.370163 
	C128.037125,67.413467 126.903694,68.554077 126.890800,74.771461 
	C126.867653,85.935440 126.889702,97.099503 126.894295,109.204712 
M83.520874,114.478638 
	C87.125107,115.204048 90.702148,116.270195 94.341103,116.560646 
	C98.106735,116.861206 100.151718,114.752937 100.122452,110.768608 
	C100.062523,102.606316 100.066460,94.442856 100.134399,86.280640 
	C100.162338,82.923409 98.728188,80.440147 95.381310,80.518181 
	C91.184563,80.616020 86.196594,78.264076 83.116135,83.340637 
	C82.793877,83.871704 82.742729,84.634041 82.748627,85.287430 
	C82.834129,94.769684 82.950882,104.251656 83.520874,114.478638 
M106.244347,94.985168 
	C105.850929,101.155525 105.341156,107.323143 105.196243,113.499329 
	C105.175774,114.371803 106.879280,115.977730 107.879662,116.057686 
	C111.628868,116.357330 115.480194,116.546593 119.156082,115.942574 
	C120.388733,115.740028 121.927490,113.113457 122.083138,111.476654 
	C122.490608,107.191628 122.601860,102.788254 122.022713,98.542328 
	C121.778458,96.751678 119.656433,94.036034 118.118858,93.838799 
	C114.458878,93.369316 110.638542,94.149994 106.244347,94.985168 
z"/>
<path fill="#EDEDED" opacity="1.000000" stroke="none" 
	d="
M60.827808,160.146759 
	C60.827763,162.788757 60.943726,164.962341 60.800964,167.118805 
	C60.597775,170.188202 61.532154,171.755081 64.977882,171.651062 
	C68.126022,171.556000 68.937851,170.151199 68.840744,167.286850 
	C68.682991,162.633652 68.798210,157.971191 68.798210,153.021347 
	C70.568085,153.021347 72.120049,153.021347 73.906700,153.021347 
	C73.906700,158.982483 73.996910,164.631958 73.873741,170.276764 
	C73.796677,173.808212 71.901993,175.832748 68.227699,175.844376 
	C61.587860,175.865387 54.947819,175.875229 48.308060,175.845673 
	C44.933571,175.830658 42.967007,174.153549 42.924732,170.702408 
	C42.853523,164.889282 42.905216,159.074661 42.905216,152.967560 
	C44.552959,152.967560 45.961262,152.967560 47.468071,152.967560 
	C47.618729,153.579773 47.822845,154.028442 47.825325,154.478226 
	C47.850109,158.976562 47.926933,163.477234 47.811966,167.972733 
	C47.738293,170.853271 49.057243,171.771591 51.764698,171.652328 
	C54.226513,171.543869 55.974995,171.093323 55.899555,168.036591 
	C55.777180,163.078140 55.866581,158.114456 55.866581,152.992249 
	C57.657490,152.992249 59.072075,152.992249 60.828289,152.992249 
	C60.828289,155.411819 60.828289,157.541260 60.827808,160.146759 
z"/>
<path fill="#E9E9E9" opacity="1.000000" stroke="none" 
	d="
M166.190445,160.298065 
	C166.267761,153.609085 167.642181,152.191635 173.687393,152.135162 
	C175.515472,152.118073 177.352570,152.028992 179.170242,152.170074 
	C182.266190,152.410400 184.065918,154.072006 184.092575,157.291946 
	C184.129715,161.779602 184.136429,166.268036 184.095200,170.755600 
	C184.065765,173.959167 182.328552,175.607010 179.180786,175.846313 
	C179.015167,175.858902 178.848770,175.866318 178.682693,175.867157 
	C166.248032,175.930054 165.725174,177.006470 166.190445,160.298065 
M172.789810,156.787338 
	C172.236542,160.367310 171.619278,163.938904 171.149704,167.529816 
	C170.755814,170.541901 172.261017,171.617676 175.219299,171.692261 
	C178.338425,171.770889 179.347977,170.476822 179.219925,167.537064 
	C179.070038,164.095978 179.184875,160.643341 179.184875,156.672852 
	C176.951340,156.672852 175.336197,156.672852 172.789810,156.787338 
z"/>
<path fill="#EAEAEA" opacity="1.000000" stroke="none" 
	d="
M161.918335,172.297272 
	C159.085648,175.897888 149.668182,177.245789 146.348923,174.946640 
	C142.968246,172.604935 142.799545,154.477127 146.578735,153.329895 
	C150.601807,152.108612 155.395889,152.268097 159.528976,153.225266 
	C160.892700,153.541092 161.661423,158.169571 161.960663,160.907181 
	C162.355362,164.517990 162.019440,168.208649 161.918335,172.297272 
M154.502090,156.606216 
	C152.698914,157.492722 149.669724,158.059860 149.338898,159.329910 
	C148.567429,162.291428 148.866928,165.616867 149.221939,168.739227 
	C149.340515,169.782211 150.875854,171.347946 151.886337,171.449203 
	C153.497147,171.610611 156.669800,170.702652 156.658508,170.321671 
	C156.523895,165.778259 155.922195,161.248718 154.502090,156.606216 
z"/>
<path fill="#ECECEC" opacity="1.000000" stroke="none" 
	d="
M117.973587,169.543167 
	C117.809013,174.407867 115.373375,176.138824 111.136147,175.888168 
	C109.148476,175.770584 107.146942,175.909149 105.154755,175.841370 
	C101.740601,175.725266 99.985588,173.898804 99.959190,170.492950 
	C99.925690,166.172241 99.938194,161.851013 99.955322,157.530106 
	C99.969063,154.064972 101.913742,152.148346 105.195656,152.190216 
	C114.506172,152.308960 118.744240,149.830002 117.974983,163.612274 
	C117.873276,165.434586 117.968452,167.267914 117.973587,169.543167 
M104.874313,164.419586 
	C104.874298,165.085281 104.901108,165.752228 104.869621,166.416443 
	C104.736778,169.218536 104.625748,171.701202 108.739532,171.723145 
	C112.995789,171.745819 113.132248,169.308777 112.945808,166.199722 
	C112.816536,164.044067 113.255638,161.800201 112.796638,159.739212 
	C112.530937,158.546173 111.130051,156.956802 109.995712,156.720963 
	C105.548767,155.796371 104.883270,156.810287 104.874313,164.419586 
z"/>
<path fill="#EBEBEB" opacity="1.000000" stroke="none" 
	d="
M82.596771,152.168549 
	C95.942421,152.068085 95.942261,152.068085 95.943848,164.972382 
	C95.944031,166.469376 95.968475,167.966766 95.940804,169.463211 
	C95.925499,170.290329 95.964134,171.155884 95.739647,171.935349 
	C94.668221,175.655746 90.190964,176.951431 82.608818,175.846649 
	C79.172127,175.345901 77.847916,173.224243 77.865921,169.955063 
	C77.887901,165.963501 77.392334,161.889343 78.060310,158.012848 
	C78.425034,155.896179 80.731163,154.114029 82.596771,152.168549 
M90.870735,159.756393 
	C90.958603,155.608795 87.750526,156.418747 85.621170,156.786713 
	C84.525993,156.975952 83.229836,158.947571 82.959946,160.300385 
	C82.517548,162.517929 82.959427,164.895752 82.806168,167.191132 
	C82.603813,170.221680 83.563576,171.769882 86.908951,171.766464 
	C90.319077,171.762970 91.138481,170.102524 90.919044,167.115875 
	C90.762611,164.986938 90.898239,162.836548 90.870735,159.756393 
z"/>
<path fill="#F0F0F0" opacity="1.000000" stroke="none" 
	d="
M137.992966,152.710968 
	C138.970367,153.439896 139.898544,154.136993 139.910141,154.849045 
	C140.020828,161.636292 139.976212,168.426071 139.976212,175.530609 
	C138.275833,175.530609 136.902069,175.530609 135.065094,175.530609 
	C135.065094,172.494980 135.065094,169.586502 135.065094,166.394333 
	C132.353577,166.394333 130.095596,166.394333 127.181595,166.394333 
	C127.181595,169.364426 127.181595,172.393234 127.181595,175.644073 
	C125.261940,175.644073 123.993210,175.644073 122.367256,175.644073 
	C122.367256,168.282547 122.367256,160.888611 122.367256,153.071198 
	C123.581169,152.938705 124.959152,152.788284 126.813240,152.585907 
	C126.813240,155.688065 126.813240,158.441833 126.813240,161.570068 
	C129.619354,161.570068 132.002747,161.570068 135.037170,161.570068 
	C135.037170,159.550537 134.773956,157.404572 135.148621,155.376450 
	C135.334869,154.368149 136.691391,153.576019 137.992966,152.710968 
z"/>
<path fill="#040404" opacity="1.000000" stroke="none" 
	d="
M126.893585,108.734123 
	C126.889702,97.099503 126.867653,85.935440 126.890800,74.771461 
	C126.903694,68.554077 128.037125,67.413467 134.096359,67.370163 
	C135.927536,67.357079 138.067734,66.840660 139.514008,67.602882 
	C141.389236,68.591202 144.019714,70.590919 144.065796,72.219185 
	C144.438065,85.372841 144.307266,98.541664 144.231964,111.705292 
	C144.225906,112.767235 143.623459,114.662865 143.070480,114.751556 
	C138.809860,115.434914 134.441681,116.377625 130.209442,116.021400 
	C126.650520,115.721848 126.823608,112.090858 126.893585,108.734123 
z"/>
<path fill="#060606" opacity="1.000000" stroke="none" 
	d="
M83.290520,114.106171 
	C82.950882,104.251656 82.834129,94.769684 82.748627,85.287430 
	C82.742729,84.634041 82.793877,83.871704 83.116135,83.340637 
	C86.196594,78.264076 91.184563,80.616020 95.381310,80.518181 
	C98.728188,80.440147 100.162338,82.923409 100.134399,86.280640 
	C100.066460,94.442856 100.062523,102.606316 100.122452,110.768608 
	C100.151718,114.752937 98.106735,116.861206 94.341103,116.560646 
	C90.702148,116.270195 87.125107,115.204048 83.290520,114.106171 
z"/>
<path fill="#070707" opacity="1.000000" stroke="none" 
	d="
M106.563660,94.705399 
	C110.638542,94.149994 114.458878,93.369316 118.118858,93.838799 
	C119.656433,94.036034 121.778458,96.751678 122.022713,98.542328 
	C122.601860,102.788254 122.490608,107.191628 122.083138,111.476654 
	C121.927490,113.113457 120.388733,115.740028 119.156082,115.942574 
	C115.480194,116.546593 111.628868,116.357330 107.879662,116.057686 
	C106.879280,115.977730 105.175774,114.371803 105.196243,113.499329 
	C105.341156,107.323143 105.850929,101.155525 106.563660,94.705399 
z"/>
<path fill="#0B0B0B" opacity="1.000000" stroke="none" 
	d="
M173.255432,156.730103 
	C175.336197,156.672852 176.951340,156.672852 179.184875,156.672852 
	C179.184875,160.643341 179.070038,164.095978 179.219925,167.537064 
	C179.347977,170.476822 178.338425,171.770889 175.219299,171.692261 
	C172.261017,171.617676 170.755814,170.541901 171.149704,167.529816 
	C171.619278,163.938904 172.236542,160.367310 173.255432,156.730103 
z"/>
<path fill="#0B0B0B" opacity="1.000000" stroke="none" 
	d="
M154.972473,156.660873 
	C155.922195,161.248718 156.523895,165.778259 156.658508,170.321671 
	C156.669800,170.702652 153.497147,171.610611 151.886337,171.449203 
	C150.875854,171.347946 149.340515,169.782211 149.221939,168.739227 
	C148.866928,165.616867 148.567429,162.291428 149.338898,159.329910 
	C149.669724,158.059860 152.698914,157.492722 154.972473,156.660873 
z"/>
<path fill="#0B0B0B" opacity="1.000000" stroke="none" 
	d="
M104.874344,163.945526 
	C104.883270,156.810287 105.548767,155.796371 109.995712,156.720963 
	C111.130051,156.956802 112.530937,158.546173 112.796638,159.739212 
	C113.255638,161.800201 112.816536,164.044067 112.945808,166.199722 
	C113.132248,169.308777 112.995789,171.745819 108.739532,171.723145 
	C104.625748,171.701202 104.736778,169.218536 104.869621,166.416443 
	C104.901108,165.752228 104.874298,165.085281 104.874344,163.945526 
z"/>
<path fill="#0D0D0D" opacity="1.000000" stroke="none" 
	d="
M90.887138,160.226059 
	C90.898239,162.836548 90.762611,164.986938 90.919044,167.115875 
	C91.138481,170.102524 90.319077,171.762970 86.908951,171.766464 
	C83.563576,171.769882 82.603813,170.221680 82.806168,167.191132 
	C82.959427,164.895752 82.517548,162.517929 82.959946,160.300385 
	C83.229836,158.947571 84.525993,156.975952 85.621170,156.786713 
	C87.750526,156.418747 90.958603,155.608795 90.887138,160.226059 
z"/>
</svg>